<?xml version="1.0" encoding="UTF-8" standalone="no"?>
<!-- Created with Inkscape (http://www.inkscape.org/) -->

<svg
   xmlns:dc="http://purl.org/dc/elements/1.1/"
   xmlns:cc="http://creativecommons.org/ns#"
   xmlns:rdf="http://www.w3.org/1999/02/22-rdf-syntax-ns#"
   xmlns:svg="http://www.w3.org/2000/svg"
   xmlns="http://www.w3.org/2000/svg"
   xmlns:sodipodi="http://sodipodi.sourceforge.net/DTD/sodipodi-0.dtd"
   xmlns:inkscape="http://www.inkscape.org/namespaces/inkscape"
   width="880"
   height="2500"
   id="svg2433"
   sodipodi:version="0.32"
   inkscape:version="0.47 r22583"
   sodipodi:docname="zhockon_sidebar.svg"
   inkscape:output_extension="org.inkscape.output.svg.inkscape"
   version="1.0">
  <defs
     id="defs2435">
    <filter
       inkscape:collect="always"
       id="filter8279">
      <feGaussianBlur
         inkscape:collect="always"
         stdDeviation="2.2948321"
         id="feGaussianBlur8281" />
    </filter>
    <filter
       inkscape:collect="always"
       id="filter8251"
       x="-0.78742235"
       width="2.5748447"
       y="-0.29956295"
       height="1.5991259">
      <feGaussianBlur
         inkscape:collect="always"
         stdDeviation="1.9532989"
         id="feGaussianBlur8253" />
    </filter>
    <filter
       inkscape:collect="always"
       id="filter8255"
       x="-0.98041388"
       width="2.9608278"
       y="-0.37298335"
       height="1.7459667">
      <feGaussianBlur
         inkscape:collect="always"
         stdDeviation="1.9532989"
         id="feGaussianBlur8257" />
    </filter>
    <filter
       inkscape:collect="always"
       id="filter8259"
       x="-0.78742235"
       width="2.5748447"
       y="-0.29956295"
       height="1.5991259">
      <feGaussianBlur
         inkscape:collect="always"
         stdDeviation="1.9532989"
         id="feGaussianBlur8261" />
    </filter>
    <filter
       inkscape:collect="always"
       id="filter8263"
       x="-0.98041388"
       width="2.9608278"
       y="-0.37298335"
       height="1.7459667">
      <feGaussianBlur
         inkscape:collect="always"
         stdDeviation="1.9532989"
         id="feGaussianBlur8265" />
    </filter>
    <inkscape:perspective
       sodipodi:type="inkscape:persp3d"
       inkscape:vp_x="0 : 600 : 1"
       inkscape:vp_y="0 : 1000 : 0"
       inkscape:vp_z="1600 : 600 : 1"
       inkscape:persp3d-origin="800 : 400 : 1"
       id="perspective2441" />
  </defs>
  <sodipodi:namedview
     id="base"
     pagecolor="#ffffff"
     bordercolor="#666666"
     borderopacity="1.0"
     inkscape:pageopacity="0.0"
     inkscape:pageshadow="2"
     inkscape:zoom="0.21213203"
     inkscape:cx="-465.59619"
     inkscape:cy="1692.5142"
     inkscape:current-layer="layer1"
     inkscape:document-units="px"
     showgrid="false"
     inkscape:window-width="1680"
     inkscape:window-height="1000"
     inkscape:window-x="-2"
     inkscape:window-y="-3"
     inkscape:window-maximized="1" />
  <metadata
     id="metadata2438">
    <rdf:RDF>
      <cc:Work
         rdf:about="">
        <dc:format>image/svg+xml</dc:format>
        <dc:type
           rdf:resource="http://purl.org/dc/dcmitype/StillImage" />
      </cc:Work>
    </rdf:RDF>
  </metadata>
  <g
     id="layer1"
     inkscape:label="Layer 1"
     inkscape:groupmode="layer">
    <rect
       style="opacity:1;fill:#000000;fill-opacity:1;fill-rule:evenodd;stroke:none;stroke-width:50;stroke-linecap:square;stroke-linejoin:round;stroke-miterlimit:4;stroke-dasharray:none;stroke-opacity:1"
       id="rect3222"
       width="2500"
       height="880"
       x="0"
       y="-880"
       transform="matrix(0,1,-1,0,0,0)" />
    <text
       xml:space="preserve"
       style="font-size:260;font-style:normal;font-variant:normal;font-weight:bold;font-stretch:normal;fill:#000000;fill-opacity:1;stroke:none;stroke-width:1px;stroke-linecap:butt;stroke-linejoin:miter;stroke-opacity:1;font-family:Good Times;-inkscape-font-specification:Good Times"
       x="951.37341"
       y="-343.83389"
       id="text2407"
       transform="matrix(0,1,-1,0,0,0)"><tspan
         sodipodi:role="line"
         id="tspan2409"
         x="951.37341"
         y="-343.83389"
         style="fill:#ffffff;-inkscape-font-specification:Good Times;font-family:Good Times;font-size:260">ZHOCK<tspan
   style="fill:#ff0000;-inkscape-font-specification:Good Times;font-family:Good Times;font-size:260"
   id="tspan3316">ON</tspan></tspan></text>
    <path
       transform="matrix(3.6529506,0,0,3.6547723,-505.79133,-47.945991)"
       style="fill:#ff0000;fill-opacity:1;filter:url(#filter8279)"
       d="M 170.89106,94.59577 C 161.04717,128.01145 161.04717,128.01145 170.89106,128.01145 C 162.45252,128.01145 151.40392,128.2753 157.43302,192.49013 C 158.4371,203.18445 159.64182,215.65248 161.04717,230.18839 C 161.04717,254.23002 161.04717,248.92241 161.04717,263.42241 C 161.04717,272.6148 196.04896,272.6148 196.04896,263.42241 C 210.73481,263.42241 210.73481,263.42241 196.04896,231.6026 C 186.58848,211.10459 196.04896,184.50291 196.04896,128.01145 C 196.04896,263.42241 234.39613,208.97518 222.56547,208.97518 C 224.54287,209.64505 196.04896,254.23002 222.56547,254.23002 C 229.22153,254.23002 196.04896,263.42241 222.56547,263.42241 C 268.08547,263.42241 240.10251,223.09576 249.70069,223.09576 C 261.96721,223.09576 249.70069,223.09576 268.08547,223.09576 C 275.16516,223.09576 249.70069,263.42241 295.75102,263.42241 C 325.80306,263.42241 286.91218,254.23002 295.75102,254.23002 C 325.80306,254.23003 293.53158,209.71263 295.75102,208.97518 C 280.76723,208.97518 325.80306,263.42241 325.80306,128.01145 C 325.80306,173.17837 335.38986,211.66034 325.89106,231.6026 C 310.73481,263.42241 310.73481,263.42241 325.80306,263.42241 C 325.80306,272.6148 360.80484,272.6148 360.80484,263.42241 C 360.80484,242.92241 360.80484,254.23002 360.80484,230.18839 C 370.70433,128.01145 360.51613,128.01145 350.90535,128.01145 C 360.51613,128.01145 360.51613,128.01145 350.61664,94.595765 C 332.3944,81.056735 329.4997,79.22108 325.80306,79.22108 C 275.91218,79.221084 286.91218,25.73508 268.08547,25.73508 C 268.08547,18.76346 249.70069,18.76346 249.70069,25.73508 C 232.11141,25.73508 241.61141,79.221083 196.04896,79.22108 C 191.80632,79.22108 186.82454,82.307583 170.89106,94.59577 z M 258.27436,140.52275 C 235.40253,140.52276 229.19753,140.52276 210.8982,140.52275 C 205.89106,140.52275 205.89106,103.59576 210.8982,103.59576 C 210.8982,97.212455 258.27436,97.212455 258.27436,103.59576 C 258.27435,123.97843 258.27435,123.88236 258.27436,140.52275 z M 310.95381,103.59576 C 315.89106,103.59576 315.89106,140.52275 310.95381,140.52275 C 286.62156,140.52276 289.29402,140.52276 263.40088,140.52275 C 263.40087,121.42192 263.40087,121.30704 263.40088,103.59576 C 263.40088,97.212455 310.95381,97.212455 310.95381,103.59576 z M 310.73481,145.34576 C 310.73481,148.32886 325.80306,144.9321 310.73481,197.97518 C 310.73481,209.47518 210.73481,209.47518 210.73481,197.97518 C 196.04896,144.10171 210.73481,147.0091 210.73481,145.34576 C 252.97812,145.34576 267.94195,145.34576 310.73481,145.34576 z"
       id="path7562"
       sodipodi:nodetypes="ccscccsccscsscsccscccccsccscccccccccccccccc" />
    <path
       transform="matrix(3.6529506,0,0,3.6547723,-505.79133,-47.945991)"
       style="fill:#ff0000;fill-opacity:1;fill-rule:evenodd;stroke:#ff0000;stroke-width:1px;stroke-linecap:butt;stroke-linejoin:miter;stroke-opacity:1;filter:url(#filter8251)"
       d="M 278.34644,36.903859 C 284.97868,30.820713 283.03394,50.380421 283.03394,50.380421"
       id="path7592"
       sodipodi:nodetypes="cc" />
    <path
       transform="matrix(3.6529506,0,0,3.6547723,-505.79133,-47.945991)"
       style="fill:#ff0000;fill-opacity:1;fill-rule:evenodd;stroke:#ff0000;stroke-width:0.80315369px;stroke-linecap:butt;stroke-linejoin:miter;stroke-opacity:1;filter:url(#filter8255)"
       d="M 278.08163,38.402819 C 283.40833,33.517117 281.84641,49.226569 281.84641,49.226569"
       id="path7594"
       sodipodi:nodetypes="cc" />
    <path
       transform="matrix(3.6529506,0,0,3.6547723,-505.79133,-47.945991)"
       style="fill:#ff0000;fill-opacity:1;fill-rule:evenodd;stroke:#ff0000;stroke-width:1px;stroke-linecap:butt;stroke-linejoin:miter;stroke-opacity:1;filter:url(#filter8259)"
       d="M 239.84128,36.846591 C 233.20904,30.763445 235.15378,50.323153 235.15378,50.323153"
       id="path7596"
       sodipodi:nodetypes="cc" />
    <path
       transform="matrix(3.6529506,0,0,3.6547723,-505.79133,-47.945991)"
       style="fill:#ff0000;fill-opacity:1;fill-rule:evenodd;stroke:#ff0000;stroke-width:0.80315369px;stroke-linecap:butt;stroke-linejoin:miter;stroke-opacity:1;filter:url(#filter8263)"
       d="M 240.10609,38.345551 C 234.77939,33.459849 236.34131,49.169301 236.34131,49.169301"
       id="path7598"
       sodipodi:nodetypes="cc" />
    <g
       style="fill:#ff0000;fill-opacity:1"
       id="g8404"
       transform="matrix(3.6529506,0,0,3.6547723,-246.51883,-64.445151)">
      <path
         style="fill:#000000;fill-opacity:1"
         d="M 99.914876,99.110185 C 90.070991,132.52586 90.070991,132.52586 99.914876,132.52586 C 91.476342,132.52586 80.427739,132.78971 86.456838,197.00454 C 87.460922,207.69886 88.66564,220.16689 90.070991,234.7028 C 90.070991,258.74443 90.070991,253.43682 90.070991,267.93682 C 90.070991,277.12921 125.07278,277.12921 125.07278,267.93682 C 139.75863,267.93682 139.75863,267.93682 125.07278,236.11701 C 115.6123,215.619 125.07278,189.01732 125.07278,132.52586 C 125.07278,267.93682 163.41995,213.48959 151.58929,213.48959 C 153.56669,214.15946 125.07278,258.74443 151.58929,258.74443 C 158.24535,258.74443 125.07278,267.93682 151.58929,267.93682 C 197.10929,267.93682 169.12633,227.61017 178.72451,227.61017 C 190.99103,227.61017 178.72451,227.61017 197.10929,227.61017 C 204.18898,227.61017 178.72451,267.93682 224.77484,267.93682 C 254.82688,267.93682 215.936,258.74443 224.77484,258.74443 C 254.82688,258.74444 222.5554,214.22704 224.77484,213.48959 C 209.79105,213.48959 254.82688,267.93682 254.82688,132.52586 C 254.82688,177.69278 264.41368,216.17475 254.91488,236.11701 C 239.75863,267.93682 239.75863,267.93682 254.82688,267.93682 C 254.82688,277.12921 289.82866,277.12921 289.82866,267.93682 C 289.82866,247.43682 289.82866,258.74443 289.82866,234.7028 C 299.72815,132.52586 289.53995,132.52586 279.92917,132.52586 C 289.53995,132.52586 289.53995,132.52586 279.64046,99.11018 C 261.41822,85.57115 258.52352,83.735495 254.82688,83.735495 C 204.936,83.735499 215.936,30.249495 197.10929,30.249495 C 197.10929,23.277875 178.72451,23.277875 178.72451,30.249495 C 161.13523,30.249495 170.63523,83.735498 125.07278,83.735495 C 120.83014,83.735495 115.84836,86.821998 99.914876,99.110185 z M 187.29818,145.03716 C 164.42635,145.03717 158.22135,145.03717 139.92202,145.03716 C 134.91488,145.03716 134.91488,108.11017 139.92202,108.11017 C 139.92202,101.72687 187.29818,101.72687 187.29818,108.11017 C 187.29817,128.49284 187.29817,128.39677 187.29818,145.03716 z M 239.97763,108.11017 C 244.91488,108.11017 244.91488,145.03716 239.97763,145.03716 C 215.64538,145.03717 218.31784,145.03717 192.4247,145.03716 C 192.42469,125.93633 192.42469,125.82145 192.4247,108.11017 C 192.4247,101.72687 239.97763,101.72687 239.97763,108.11017 z M 239.75863,149.86017 C 239.75863,152.84327 254.82688,149.44651 239.75863,202.48959 C 239.75863,213.98959 139.75863,213.98959 139.75863,202.48959 C 125.07278,148.61612 139.75863,151.52351 139.75863,149.86017 C 182.00194,149.86017 196.96577,149.86017 239.75863,149.86017 z"
         id="path2464"
         sodipodi:nodetypes="ccscccsccscsscsccscccccsccscccccccccccccccc" />
      <path
         style="fill:none;fill-rule:evenodd;stroke:#000000;stroke-width:1.08521688px;stroke-linecap:butt;stroke-linejoin:miter;stroke-opacity:1"
         d="M 173.22898,78.048249 C 173.22898,74.74303 177.9084,72.761494 183.51816,72.103286 C 191.91202,71.118411 202.38882,73.096349 202.38882,78.035919 C 202.38882,86.446836 173.22898,86.576562 173.22898,78.048249 z"
         id="path2466"
         sodipodi:nodetypes="cscc" />
      <path
         style="fill:none;fill-opacity:1;fill-rule:evenodd;stroke:#000000;stroke-width:1px;stroke-linecap:butt;stroke-linejoin:miter;stroke-opacity:1"
         d="M 178.72451,58.284089 C 178.72451,56.241562 184.78525,62.497435 185.79015,62.497435 C 188.12472,62.497435 186.58977,57.547327 188.05651,56.276406 C 189.4646,57.390524 188.08705,62.497435 190.16163,62.497435 C 191.24846,62.497435 197.10929,56.228488 197.10929,58.157787 C 197.10929,52.631027 191.03991,55.956333 188.10294,55.548186 C 185.66681,55.999184 178.72451,52.434824 178.72451,58.284089 z"
         id="path2468"
         sodipodi:nodetypes="cscsccc" />
      <path
         style="fill:none;fill-rule:evenodd;stroke:#000000;stroke-width:1px;stroke-linecap:butt;stroke-linejoin:miter;stroke-opacity:1"
         d="M 173.3125,77.17297 C 173.3125,78.158442 174.80173,80.5 177.25,80.5 C 177.25,77.17297 177.78661,74.395482 177.78661,74.056216 C 177.78661,73.209233 177.04777,77.17297 178.7666,77.17297 C 180.40209,77.17297 179.00682,77.17297 181.17677,77.17297 C 183.34672,77.17297 181.40113,72.181118 182.43934,72.134833 C 183.1726,72.102143 181.14084,77.17297 183.88756,77.17297 C 186.63429,77.17297 185.87178,77.17297 186.66794,77.17297 C 189.52201,77.17297 187.88648,71.259716 188.45634,71.78128 C 189.24131,72.499727 187.72019,77.17297 189.68046,77.17297 C 191.64073,77.17297 192.60893,77.17297 193.34313,77.17297 C 194.5227,77.17297 194.35156,72.281499 194.37683,72.488387 C 194.49083,73.421686 194.11884,77.17297 195.27773,77.17297 C 196.43662,77.17297 196.74573,77.17297 197.64187,77.17297 C 198.41826,77.17297 198.4263,75.196602 198.48483,74.291051 C 199.01183,74.518437 198.75,77.172881 198.75,80.5 C 200.95511,80.5 202.3125,77.6593 202.3125,77.17297"
         id="path2470"
         transform="translate(-8.5124127e-2,0.1101747)"
         sodipodi:nodetypes="cccszszsszsszsccc" />
      <path
         style="opacity:1;fill:#000000;fill-opacity:1;fill-rule:evenodd;stroke:#000000;stroke-width:0.1;stroke-linecap:square;stroke-linejoin:round;stroke-miterlimit:4;stroke-dasharray:none;stroke-opacity:1"
         d="M 186.73558,83.692694 C 182.96683,83.584749 179.52185,82.891229 177.17308,81.767636 C 176.45769,81.425411 175.2824,80.698108 175.34447,80.63604 C 175.35691,80.623605 175.56862,80.683518 175.81494,80.769182 C 176.27615,80.929573 176.94871,81.041693 177.46996,81.045081 L 177.76683,81.047011 L 177.76723,80.500136 C 177.76774,79.817116 177.88985,77.528158 177.92781,77.490201 C 177.94326,77.474748 178.05494,77.509336 178.17599,77.56706 C 178.36434,77.656879 178.62719,77.672011 179.99922,77.672011 C 181.50352,77.672011 181.6192,77.663863 181.87534,77.539867 C 182.02547,77.467189 182.19227,77.340625 182.24601,77.258617 C 182.29974,77.17661 182.36398,77.109511 182.38876,77.109511 C 182.41354,77.109511 182.55796,77.204179 182.7097,77.319885 C 182.86143,77.435591 183.08118,77.562153 183.19803,77.601135 C 183.33732,77.647605 184.04912,77.672011 185.26502,77.672011 C 187.43865,77.672011 187.53156,77.654426 188.05949,77.143087 C 188.24227,76.966041 188.39183,76.846856 188.39183,76.87823 C 188.39183,77.013549 188.79182,77.42296 189.04267,77.544393 C 189.30737,77.672528 189.38413,77.676059 191.52827,77.658687 L 193.74075,77.640761 L 193.93574,77.484511 C 194.04298,77.398573 194.16624,77.264719 194.20965,77.187057 L 194.28857,77.045855 L 194.38844,77.198096 C 194.44337,77.281829 194.57132,77.415683 194.67277,77.49555 C 194.85285,77.637314 194.89391,77.641204 196.40334,77.659426 C 197.79248,77.676196 197.96647,77.666941 198.11707,77.56826 L 198.28469,77.45843 L 198.23838,79.262515 L 198.19206,81.0666 L 198.7638,81.026015 C 199.26544,80.990409 199.57677,80.913337 200.29808,80.646198 C 200.53721,80.557634 200.03398,80.950465 199.50473,81.265501 C 197.67025,82.357473 194.78026,83.175287 191.56143,83.513313 C 190.64564,83.609485 188.09015,83.742655 187.57933,83.720825 C 187.42464,83.714217 187.04496,83.701557 186.73558,83.692695 L 186.73558,83.692694 z"
         id="path2472"
         transform="translate(-8.5124127e-2,0.1101747)" />
      <path
         sodipodi:type="arc"
         style="opacity:1;fill:#ffffff;fill-opacity:1;fill-rule:evenodd;stroke:none;stroke-width:0.1;stroke-linecap:square;stroke-linejoin:round;stroke-miterlimit:4;stroke-dasharray:none;stroke-opacity:1"
         id="path2474"
         sodipodi:cx="177.5625"
         sodipodi:cy="38.062496"
         sodipodi:rx="3.8125"
         sodipodi:ry="3.5625"
         d="m 181.375,38.062496 c 0,1.967515 -1.70691,3.5625 -3.8125,3.5625 -2.10559,0 -3.8125,-1.594985 -3.8125,-3.5625 0,-1.967514 1.70691,-3.5625 3.8125,-3.5625 2.10559,0 3.8125,1.594986 3.8125,3.5625 z"
         transform="matrix(1.7675624,0,0,1.280702,-135.12829,-1.9238512)" />
      <path
         sodipodi:type="arc"
         style="opacity:1;fill:#ffffff;fill-opacity:1;fill-rule:evenodd;stroke:none;stroke-width:0.1;stroke-linecap:square;stroke-linejoin:round;stroke-miterlimit:4;stroke-dasharray:none;stroke-opacity:1"
         id="path2476"
         sodipodi:cx="177.5625"
         sodipodi:cy="38.062496"
         sodipodi:rx="3.8125"
         sodipodi:ry="3.5625"
         d="m 181.375,38.062496 c 0,1.967515 -1.70691,3.5625 -3.8125,3.5625 -2.10559,0 -3.8125,-1.594985 -3.8125,-3.5625 0,-1.967514 1.70691,-3.5625 3.8125,-3.5625 2.10559,0 3.8125,1.594986 3.8125,3.5625 z"
         transform="matrix(1.8052921,0,0,1.2807016,-122.98707,-1.9575251)" />
      <path
         sodipodi:type="arc"
         style="opacity:1;fill:#ff0000;fill-opacity:1;fill-rule:evenodd;stroke:none;stroke-width:0.1;stroke-linecap:square;stroke-linejoin:round;stroke-miterlimit:4;stroke-dasharray:none;stroke-opacity:1"
         id="path2478"
         sodipodi:cx="177.5625"
         sodipodi:cy="38.062496"
         sodipodi:rx="3.8125"
         sodipodi:ry="3.5625"
         d="m 181.375,38.062496 c 0,1.967515 -1.70691,3.5625 -3.8125,3.5625 -2.10559,0 -3.8125,-1.594985 -3.8125,-3.5625 0,-1.967514 1.70691,-3.5625 3.8125,-3.5625 2.10559,0 3.8125,1.594986 3.8125,3.5625 z"
         transform="matrix(0.7938416,0,0,0.7938416,37.856397,16.661052)" />
      <path
         sodipodi:type="arc"
         style="opacity:1;fill:#ff0000;fill-opacity:1;fill-rule:evenodd;stroke:none;stroke-width:0.1;stroke-linecap:square;stroke-linejoin:round;stroke-miterlimit:4;stroke-dasharray:none;stroke-opacity:1"
         id="path2480"
         sodipodi:cx="177.5625"
         sodipodi:cy="38.062496"
         sodipodi:rx="3.8125"
         sodipodi:ry="3.5625"
         d="m 181.375,38.062496 c 0,1.967515 -1.70691,3.5625 -3.8125,3.5625 -2.10559,0 -3.8125,-1.594985 -3.8125,-3.5625 0,-1.967514 1.70691,-3.5625 3.8125,-3.5625 2.10559,0 3.8125,1.594986 3.8125,3.5625 z"
         transform="matrix(0.7938416,0,0,0.7938416,56.358593,16.627361)" />
      <path
         sodipodi:type="arc"
         style="opacity:1;fill:#000000;fill-opacity:1;fill-rule:evenodd;stroke:none;stroke-width:0.1;stroke-linecap:square;stroke-linejoin:round;stroke-miterlimit:4;stroke-dasharray:none;stroke-opacity:1"
         id="path2482"
         sodipodi:cx="177.5625"
         sodipodi:cy="38.062496"
         sodipodi:rx="3.8125"
         sodipodi:ry="3.5625"
         d="m 181.375,38.062496 c 0,1.967515 -1.70691,3.5625 -3.8125,3.5625 -2.10559,0 -3.8125,-1.594985 -3.8125,-3.5625 0,-1.967514 1.70691,-3.5625 3.8125,-3.5625 2.10559,0 3.8125,1.594986 3.8125,3.5625 z"
         transform="matrix(0.4460842,0,0,0.4460842,99.672141,29.897567)" />
      <path
         sodipodi:type="arc"
         style="opacity:1;fill:#000000;fill-opacity:1;fill-rule:evenodd;stroke:none;stroke-width:0.1;stroke-linecap:square;stroke-linejoin:round;stroke-miterlimit:4;stroke-dasharray:none;stroke-opacity:1"
         id="path2484"
         sodipodi:cx="177.5625"
         sodipodi:cy="38.062496"
         sodipodi:rx="3.8125"
         sodipodi:ry="3.5625"
         d="m 181.375,38.062496 c 0,1.967515 -1.70691,3.5625 -3.8125,3.5625 -2.10559,0 -3.8125,-1.594985 -3.8125,-3.5625 0,-1.967514 1.70691,-3.5625 3.8125,-3.5625 2.10559,0 3.8125,1.594986 3.8125,3.5625 z"
         transform="matrix(0.4460842,0,0,0.4460842,118.05797,29.863876)" />
      <path
         style="fill:none;fill-rule:evenodd;stroke:#000000;stroke-width:1px;stroke-linecap:butt;stroke-linejoin:miter;stroke-opacity:1"
         d="M 176.68831,52.247459 C 184.56844,49.6842 184.66074,49.6842 188.62074,49.6842 C 192.79603,49.6842 192.65185,49.6842 200.11122,52.866178"
         id="path2486"
         transform="translate(-8.5124127e-2,0.1101747)"
         sodipodi:nodetypes="ccc" />
      <path
         style="opacity:1;fill:none;fill-opacity:1;fill-rule:evenodd;stroke:none;stroke-width:0.1;stroke-linecap:square;stroke-linejoin:round;stroke-miterlimit:4;stroke-dasharray:none;stroke-opacity:1"
         d="M 200.29617,65.009728 C 199.58516,64.941559 198.93094,64.822705 196.98161,64.407569 C 193.46669,63.659019 191.31079,63.398045 188.58471,63.391113 C 185.90804,63.384308 183.84577,63.627548 181.1159,64.272055 C 179.53098,64.646246 177.84139,64.930192 176.86694,64.98612 C 175.26899,65.077833 174.57516,64.775993 174.57516,63.989115 C 174.57516,63.456197 174.74567,62.991776 175.59816,61.202671 C 176.00646,60.345788 176.49022,59.212206 176.67318,58.683603 L 177.00584,57.722507 L 177.00584,55.512798 C 177.00584,54.297458 176.97821,53.179866 176.94445,53.02926 L 176.88305,52.755431 L 179.5519,51.900987 C 182.67097,50.902401 184.26084,50.485941 185.50697,50.341079 C 186.09445,50.272786 187.35217,50.249846 189.1309,50.274985 C 191.70518,50.311366 191.90129,50.325868 192.69477,50.538527 C 193.79051,50.832189 194.8142,51.219892 197.55613,52.379666 C 199.76042,53.312027 199.80985,53.338521 199.80163,53.583217 C 199.79701,53.720828 199.74368,54.369975 199.68312,55.025765 C 199.4734,57.296783 199.64756,57.893379 201.54116,61.390623 C 202.55018,63.254137 202.80331,64.146439 202.46141,64.634561 C 202.22197,64.976403 201.41213,65.116725 200.29617,65.009728 z M 189.11742,60.904487 C 189.51401,60.564192 190.46107,59.73667 191.222,59.065549 C 192.88473,57.599063 194.8281,56.033421 195.34379,55.744908 L 195.71884,55.535075 L 195.65642,55.744909 C 195.59356,55.956196 194.91395,57.27138 194.5605,57.865729 L 194.37021,58.185728 L 194.57106,58.316663 C 194.68152,58.388675 194.89811,58.512596 195.05237,58.592042 L 195.33284,58.736488 L 195.76033,57.964334 C 196.62607,56.400609 197.01756,55.358025 196.90597,54.913404 C 196.8123,54.540215 196.51265,54.319282 196.10315,54.321496 C 195.22092,54.326267 193.94226,55.237855 190.07206,58.621216 C 189.04278,59.521015 188.18352,60.263642 188.1626,60.271493 C 188.14167,60.279344 187.36149,59.649373 186.42887,58.871555 C 183.39029,56.337349 181.12414,54.73865 180.08418,54.395564 C 179.13097,54.081098 178.54297,54.506609 178.67882,55.412548 C 178.77029,56.022503 180.26372,58.738973 180.50759,58.738973 C 180.55256,58.738973 180.75755,58.631247 180.96311,58.499581 C 181.16868,58.367915 181.34956,58.252479 181.36506,58.243054 C 181.38057,58.233631 181.17085,57.881164 180.89902,57.459797 C 180.36447,56.631177 179.75077,55.468604 179.84791,55.468604 C 180.01569,55.468604 181.18836,56.194208 182.17241,56.906916 C 183.42841,57.816589 184.7805,58.895766 186.77066,60.577024 C 187.89169,61.524057 188.16184,61.713728 188.26746,61.627916 C 188.33834,61.570328 188.72083,61.244782 189.11742,60.904487 L 189.11742,60.904487 z"
         id="path2488"
         transform="translate(-8.5124127e-2,0.1101747)" />
      <path
         style="opacity:1;fill:#000000;fill-opacity:1;fill-rule:evenodd;stroke:#000000;stroke-width:0.00976562;stroke-linecap:square;stroke-linejoin:round;stroke-miterlimit:4;stroke-dasharray:none;stroke-opacity:1"
         d="M 185.40909,61.532893 C 185.17276,61.363797 184.16641,60.579791 183.17276,59.790657 C 181.24267,58.257831 180.33855,57.614195 179.79847,57.388536 C 179.61331,57.311172 179.46278,57.193532 179.46396,57.127114 C 179.46831,56.882161 179.83612,56.217313 180.10868,55.961731 C 180.92974,55.191817 181.96927,55.150048 185.49985,55.745109 C 186.2695,55.874829 187.04355,55.980964 187.21997,55.980964 L 187.54072,55.980964 L 187.31891,56.4191 C 187.05433,56.941718 186.92163,57.71382 186.78514,59.524936 C 186.67982,60.922545 186.50518,61.579407 186.19478,61.745531 C 185.93463,61.884756 185.88031,61.870053 185.40909,61.532893 L 185.40909,61.532893 z"
         id="path2490"
         transform="translate(-8.5124127e-2,0.1101747)" />
      <path
         style="opacity:1;fill:#000000;fill-opacity:1;fill-rule:evenodd;stroke:#000000;stroke-width:0.00976562;stroke-linecap:square;stroke-linejoin:round;stroke-miterlimit:4;stroke-dasharray:none;stroke-opacity:1"
         d="M 189.99101,61.718269 C 189.72482,61.505419 189.60997,60.958703 189.46276,59.20362 C 189.32063,57.509167 189.14761,56.624062 188.87575,56.200691 C 188.73732,55.985104 188.74252,55.980959 189.15195,55.980711 C 189.38146,55.980572 190.27236,55.867549 191.13174,55.729549 C 193.03223,55.424362 194.58835,55.32929 195.15562,55.483706 C 195.68457,55.627692 196.1421,56.016485 196.3681,56.514033 C 196.62609,57.081991 196.59638,57.176644 196.08379,57.41992 C 195.52435,57.685431 194.84312,58.198148 192.74307,59.934253 C 191.24692,61.171112 190.35613,61.840339 190.20593,61.840339 C 190.17169,61.840339 190.07498,61.785407 189.99102,61.718269 L 189.99101,61.718269 z"
         id="path2492"
         transform="translate(-8.5124127e-2,0.1101747)" />
      <path
         style="fill:none;fill-rule:evenodd;stroke:#000000;stroke-width:1px;stroke-linecap:butt;stroke-linejoin:miter;stroke-opacity:1"
         d="M 207.37026,41.418274 C 214.0025,35.335128 212.05776,54.894836 212.05776,54.894836"
         id="path2494"
         sodipodi:nodetypes="cc" />
      <path
         style="fill:none;fill-rule:evenodd;stroke:#000000;stroke-width:0.80315369px;stroke-linecap:butt;stroke-linejoin:miter;stroke-opacity:1"
         d="M 207.10545,42.917234 C 212.43215,38.031532 210.87023,53.740984 210.87023,53.740984"
         id="path2496"
         sodipodi:nodetypes="cc" />
      <path
         style="fill:none;fill-rule:evenodd;stroke:#000000;stroke-width:1px;stroke-linecap:butt;stroke-linejoin:miter;stroke-opacity:1"
         d="M 168.8651,41.361006 C 162.23286,35.27786 164.1776,54.837568 164.1776,54.837568"
         id="path2499"
         sodipodi:nodetypes="cc" />
      <path
         style="fill:none;fill-rule:evenodd;stroke:#000000;stroke-width:0.80315369px;stroke-linecap:butt;stroke-linejoin:miter;stroke-opacity:1"
         d="M 169.12991,42.859966 C 163.80321,37.974264 165.36513,53.683716 165.36513,53.683716"
         id="path2501"
         sodipodi:nodetypes="cc" />
      <path
         style="opacity:1;fill:#ffffff;fill-opacity:1;fill-rule:evenodd;stroke:#000000;stroke-width:0.01953125;stroke-linecap:square;stroke-linejoin:round;stroke-miterlimit:4;stroke-dasharray:none;stroke-opacity:1"
         d="M 174.82923,65.763591 C 174.35202,65.286371 174.42358,64.89931 175.37036,62.836878 C 176.90217,59.500019 177.00246,59.096591 176.96785,56.411042 L 176.93613,53.950624 L 178.37441,53.502773 C 184.30516,51.656044 184.28171,51.66087 187.82195,51.558216 C 192.03545,51.436044 192.70699,51.600538 199.06455,54.312183 L 199.76173,54.609548 L 199.58182,56.135326 C 199.34345,58.156935 199.5573,59.011128 201.03309,61.932255 C 202.49793,64.831718 202.61918,65.213937 202.24403,65.749542 C 201.83467,66.33397 200.33155,66.287751 196.944,65.586574 C 192.7078,64.709738 190.80853,64.527031 187.26263,64.655242 C 184.71815,64.747242 183.46868,64.902642 180.78924,65.460349 C 176.89621,66.27066 175.41183,66.346183 174.82924,65.763591 L 174.82923,65.763591 z M 186.80344,63.81039 C 187.44153,63.308478 187.71071,62.479072 187.89299,60.4533 L 188.03879,58.832972 L 188.19069,60.395472 C 188.27423,61.254847 188.42499,62.282849 188.5257,62.679921 C 188.70915,63.403189 189.48645,64.204066 190.00497,64.204066 C 190.52723,64.204066 191.5351,63.555554 193.48455,61.96514 C 195.93507,59.965939 196.49707,59.576751 197.18144,59.404986 C 197.70265,59.274167 197.72375,59.225548 197.61225,58.41207 C 197.25612,55.813808 195.75993,55.128665 191.71871,55.713275 C 189.27226,56.067179 186.8787,56.035945 183.81659,55.61015 C 181.54852,55.294769 180.32932,55.447328 179.49285,56.151173 C 178.7652,56.763443 178.16281,57.994638 178.15681,58.8818 C 178.1532,59.415535 178.22415,59.516566 178.60257,59.516566 C 179.16967,59.516566 180.35466,60.265513 182.35174,61.886134 C 185.35801,64.325708 185.86805,64.546175 186.80345,63.810386 L 186.80344,63.81039 z"
         id="path2503" />
      <path
         style="opacity:1;fill:#ffffff;fill-opacity:1;fill-rule:evenodd;stroke:#000000;stroke-width:0.01953125;stroke-linecap:square;stroke-linejoin:round;stroke-miterlimit:4;stroke-dasharray:none;stroke-opacity:1"
         d="M 187.61264,92.349164 C 182.92192,92.008584 177.54969,90.205619 172.72006,87.351094 L 171.01108,86.341004 L 171.01678,83.698224 C 171.02914,77.964178 171.55657,74.217982 172.74078,71.45314 C 173.35052,70.029527 174.27978,69.293939 176.39814,68.558021 C 179.04989,67.636801 181.85147,67.26533 187.04806,67.145908 C 193.17087,67.005203 196.09457,67.330877 199.96407,68.584642 C 201.19884,68.984719 201.60441,69.223623 202.17869,69.889148 C 203.11454,70.973685 203.71092,72.179822 204.33844,74.257109 C 204.79575,75.770949 204.86847,76.399076 204.9446,79.492943 C 204.99219,81.426537 204.9467,83.765885 204.84354,84.691494 C 204.66495,86.293771 204.61964,86.408654 203.89798,87.088736 C 202.59183,88.319619 200.00088,89.941385 198.11615,90.707775 C 195.91114,91.604394 194.16119,92.035578 191.71421,92.285185 C 189.8971,92.470543 189.3927,92.47841 187.61264,92.349164 z M 192.59311,84.57564 C 197.97689,83.800412 201.60089,82.043943 202.6769,79.688256 C 203.15655,78.638185 203.1415,77.184422 202.64029,76.149056 C 201.18235,73.137351 195.35602,71.17323 187.89814,71.179306 C 180.38843,71.185428 174.68252,73.08964 173.14537,76.102699 C 172.66527,77.043801 172.64664,78.784879 173.10629,79.756394 C 174.26561,82.20675 178.51923,84.130976 184.09702,84.728314 C 185.88053,84.919314 190.82321,84.830498 192.59311,84.575642 L 192.59311,84.57564 z"
         id="path2505"
         transform="translate(-8.5124127e-2,0.1101747)" />
      <path
         style="opacity:1;fill:#ffffff;fill-opacity:1;fill-rule:evenodd;stroke:#000000;stroke-width:0.01953125;stroke-linecap:square;stroke-linejoin:round;stroke-miterlimit:4;stroke-dasharray:none;stroke-opacity:1"
         d="M 195.2367,76.283125 C 195.1255,76.075346 195.03452,75.282656 195.03452,74.521594 L 195.03452,73.137847 L 195.57163,73.256556 C 195.86704,73.321845 196.53034,73.507734 197.04563,73.66964 L 197.98252,73.964015 L 197.86505,74.873012 C 197.62428,76.735988 197.68149,76.660912 196.50251,76.660912 C 195.65083,76.660912 195.3986,76.585633 195.2367,76.283127 L 195.2367,76.283125 z"
         id="path2507"
         transform="translate(-8.5124127e-2,0.1101747)" />
      <path
         style="opacity:1;fill:#ffffff;fill-opacity:1;fill-rule:evenodd;stroke:#000000;stroke-width:0.01953125;stroke-linecap:square;stroke-linejoin:round;stroke-miterlimit:4;stroke-dasharray:none;stroke-opacity:1"
         d="M 199.33139,77.240824 L 199.33139,74.685703 L 199.94504,75.038539 C 200.57464,75.400562 201.67514,76.737437 201.67514,77.14026 C 201.67514,77.612377 200.49966,79.191806 199.92846,79.487185 L 199.33139,79.795943 L 199.33139,77.240824 z"
         id="path2509"
         transform="translate(-8.5124127e-2,0.1101747)" />
      <path
         style="opacity:1;fill:#ffffff;fill-opacity:1;fill-rule:evenodd;stroke:#000000;stroke-width:0.01953125;stroke-linecap:square;stroke-linejoin:round;stroke-miterlimit:4;stroke-dasharray:none;stroke-opacity:1"
         d="M 189.35318,76.127193 C 189.24157,75.833644 189.17783,74.860629 189.21153,73.964935 L 189.2728,72.336398 L 190.05405,72.441814 C 190.48374,72.499787 191.47251,72.605254 192.25132,72.676179 L 193.66733,72.805135 L 193.66733,74.117939 C 193.66733,74.839984 193.57084,75.707533 193.45291,76.04583 L 193.23849,76.660912 L 191.3973,76.660912 C 189.57127,76.660912 189.55443,76.656515 189.35318,76.127191 L 189.35318,76.127193 z"
         id="path2511"
         transform="translate(-8.5124127e-2,0.1101747)" />
      <path
         style="opacity:1;fill:#ffffff;fill-opacity:1;fill-rule:evenodd;stroke:#000000;stroke-width:0.01953125;stroke-linecap:square;stroke-linejoin:round;stroke-miterlimit:4;stroke-dasharray:none;stroke-opacity:1"
         d="M 183.44348,76.414072 C 183.09654,76.160385 182.99857,75.430879 183.07839,73.695558 C 183.12837,72.608871 183.0681,72.63608 185.83098,72.452791 L 187.85793,72.318326 L 187.77148,74.12648 C 187.65994,76.459347 187.46215,76.660912 185.28459,76.660912 C 184.38128,76.660912 183.64629,76.562373 183.44348,76.414074 L 183.44348,76.414072 z"
         id="path2513"
         transform="translate(-8.5124127e-2,0.1101747)" />
      <path
         style="opacity:1;fill:#ffffff;fill-opacity:1;fill-rule:evenodd;stroke:#000000;stroke-width:0.01953125;stroke-linecap:square;stroke-linejoin:round;stroke-miterlimit:4;stroke-dasharray:none;stroke-opacity:1"
         d="M 178.52329,76.332728 C 178.11835,75.927777 178.20914,73.991029 178.64583,73.719056 C 178.93271,73.540383 181.4099,72.932123 181.49679,73.019015 C 181.52409,73.046324 181.56434,73.796353 181.58623,74.685746 C 181.63287,76.581346 181.57333,76.653572 179.96058,76.657922 C 179.17917,76.660031 178.75452,76.563947 178.5233,76.332726 L 178.52329,76.332728 z"
         id="path2515"
         transform="translate(-8.5124127e-2,0.1101747)" />
      <path
         style="opacity:1;fill:#ffffff;fill-opacity:1;fill-rule:evenodd;stroke:#000000;stroke-width:0.01953125;stroke-linecap:square;stroke-linejoin:round;stroke-miterlimit:4;stroke-dasharray:none;stroke-opacity:1"
         d="M 175.48797,79.34181 C 174.59344,78.738986 173.90099,77.682476 174.06133,77.165109 C 174.29081,76.42466 174.94172,75.678304 175.9504,74.999017 C 176.49829,74.630051 176.98024,74.361845 177.02141,74.403013 C 177.06258,74.444176 176.98577,75.672174 176.85072,77.131887 C 176.68784,78.892435 176.52805,79.785912 176.37607,79.785912 C 176.25007,79.785912 175.85042,79.586066 175.48797,79.34181 L 175.48797,79.34181 z"
         id="path2517"
         transform="translate(-8.5124127e-2,0.1101747)" />
      <path
         style="opacity:1;fill:#ffffff;fill-opacity:1;fill-rule:evenodd;stroke:#000000;stroke-width:0.01953125;stroke-linecap:square;stroke-linejoin:round;stroke-miterlimit:4;stroke-dasharray:none;stroke-opacity:1"
         d="M 187.34892,44.332536 C 186.36024,44.157124 185.57018,43.667987 183.91424,42.206095 C 181.39262,39.97996 179.30428,39.006042 176.43147,38.716433 C 174.75465,38.547394 174.44159,38.43629 174.44159,38.010261 C 174.44159,37.06181 178.77852,36.195839 184.50018,36.001831 C 193.57687,35.694062 201.23201,36.467356 202.05708,37.775364 C 202.40589,38.328337 201.93536,38.545685 200.00352,38.723944 C 198.02762,38.906271 196.46919,39.29789 195.24825,39.918905 C 194.35911,40.371149 192.50897,41.75556 191.92555,42.405194 C 191.20669,43.205646 189.74986,44.151626 188.97813,44.319081 C 188.55628,44.410616 187.82313,44.416673 187.34893,44.332538 L 187.34892,44.332536 z"
         id="path2519" />
    </g>
    <path
       style="opacity:1;fill:#000000;fill-opacity:1;fill-rule:evenodd;stroke:#000000;stroke-width:0.07136455;stroke-linecap:square;stroke-linejoin:round;stroke-miterlimit:4;stroke-dasharray:none;stroke-opacity:1"
       d="M 358.61341,112.37243 C 359.50878,96.945629 361.4634,90.302139 364.96074,90.799509 C 366.34195,90.995919 366.52051,91.395789 366.33757,93.880519 C 365.97958,98.740049 364.72224,104.27627 362.16846,112.23639 C 358.76058,122.85831 358.00329,122.88729 358.61341,112.37243 L 358.61341,112.37243 z"
       id="path2521" />
    <path
       style="opacity:1;fill:#000000;fill-opacity:1;fill-rule:evenodd;stroke:#000000;stroke-width:0.07136455;stroke-linecap:square;stroke-linejoin:round;stroke-miterlimit:4;stroke-dasharray:none;stroke-opacity:1"
       d="M 355.15768,103.87403 C 355.65631,92.254069 358.14506,85.568329 362.15056,85.089589 C 363.18621,84.965829 364.75077,85.367349 365.62777,85.981859 C 367.2099,87.090709 367.20405,87.099199 364.82894,87.099199 C 363.02398,87.099199 361.8642,87.705339 360.11152,89.564489 C 357.50068,92.334189 356.46617,95.784469 355.49192,104.97269 L 354.85164,111.01226 L 355.15768,103.87403 z"
       id="path2523" />
    <path
       style="opacity:1;fill:#000000;fill-opacity:1;fill-rule:evenodd;stroke:#000000;stroke-width:0.07136455;stroke-linecap:square;stroke-linejoin:round;stroke-miterlimit:4;stroke-dasharray:none;stroke-opacity:1"
       d="M 526.16768,116.2503 C 525.99204,103.18203 524.74566,94.756609 522.43403,91.014769 C 520.87601,88.492579 517.134,86.716069 515.05799,87.513059 C 513.0229,88.294449 513.77544,87.189469 516.0962,85.988689 C 519.2278,84.368489 521.43426,85.153949 523.13799,88.495429 C 525.62127,93.365599 526.77925,102.74419 526.54254,116.07041 L 526.32771,128.14402 L 526.16768,116.2503 z"
       id="path2525" />
    <path
       style="opacity:1;fill:#000000;fill-opacity:1;fill-rule:evenodd;stroke:#000000;stroke-width:0.07136455;stroke-linecap:square;stroke-linejoin:round;stroke-miterlimit:4;stroke-dasharray:none;stroke-opacity:1"
       d="M 519.68665,113.99768 C 517.29762,108.25595 514.95458,99.988659 514.26384,94.863909 C 513.85731,91.849709 513.96028,91.525679 515.4543,91.116819 C 517.49013,90.559569 519.87733,93.041789 521.03017,96.915439 C 521.86238,99.710579 522.92937,119.22123 522.25025,119.22123 C 522.0359,119.22123 520.88226,116.87062 519.68665,113.99768 L 519.68665,113.99768 z"
       id="path2527" />
    <path
       style="fill:none;fill-opacity:1;fill-rule:evenodd;stroke:#000000;stroke-width:3.65386271px;stroke-linecap:butt;stroke-linejoin:miter;stroke-opacity:1"
       d="M 382.16358,102.02131 C 405.91798,78.254859 426.87504,97.242579 428.7223,99.090979"
       id="path8438"
       sodipodi:nodetypes="cc" />
    <path
       style="fill:none;fill-opacity:1;fill-rule:evenodd;stroke:#000000;stroke-width:3.65386271px;stroke-linecap:butt;stroke-linejoin:miter;stroke-opacity:1"
       d="M 450.65647,101.33604 C 452.6824,99.309139 473.51262,78.115989 499.28645,100.42234"
       id="path8440"
       sodipodi:nodetypes="cc" />
    <path
       style="opacity:1;fill:#ffffff;fill-opacity:1;fill-rule:evenodd;stroke:none;stroke-width:0.1;stroke-linecap:square;stroke-linejoin:round;stroke-miterlimit:4;stroke-dasharray:none;stroke-opacity:1"
       d="M 257.87957,453.91228 C 256.25481,448.58213 254.33146,427.9399 253.60496,408.04069 C 251.65421,354.58993 256.95976,333.10817 274.20322,324.64222 C 299.66859,312.13933 402.58284,312.12307 429.99173,324.61755 L 436.23678,327.46443 L 436.23678,395.53395 L 436.23678,463.6035 L 348.53528,463.6035 L 260.83338,463.6035 L 257.87957,453.91228 z"
       id="path8442" />
    <path
       style="opacity:1;fill:#ffffff;fill-opacity:1;fill-rule:evenodd;stroke:none;stroke-width:0.1;stroke-linecap:square;stroke-linejoin:round;stroke-miterlimit:4;stroke-dasharray:none;stroke-opacity:1"
       d="M 457.50393,395.83261 L 458.19251,327.99386 L 465.11489,324.67569 C 478.60958,318.2073 502.63318,315.43934 544.72401,315.50344 C 592.73404,315.57654 618.95167,320.08077 628.81683,329.95063 C 638.68491,339.82363 641.43671,355.4302 641.2186,400.28774 C 641.07321,430.15067 639.9485,444.5083 637.1689,451.97405 L 633.32011,462.31128 L 545.06779,462.99136 L 456.81498,463.6714 L 457.50393,395.83261 z"
       id="path8444" />
    <path
       style="opacity:1;fill:#ffffff;fill-opacity:1;fill-rule:evenodd;stroke:none;stroke-width:0.1;stroke-linecap:square;stroke-linejoin:round;stroke-miterlimit:4;stroke-dasharray:none;stroke-opacity:1"
       d="M 402.65743,704.90169 C 344.87462,702.67644 294.23381,694.99133 275.75824,685.64378 C 266.48263,680.95101 266.30404,680.551 258.29129,646.55204 C 241.5702,575.60136 237.72441,524.79023 247.45299,503.35671 C 256.73477,482.90723 242.42247,484.27796 446.66048,484.27796 L 628.99761,484.27796 L 635.64346,491.38484 C 649.14071,505.8182 651.76602,514.43703 651.58311,543.71724 C 651.3902,574.63073 649.12749,589.03901 636.04237,642.68449 C 626.76822,680.70552 626.66334,680.94707 617.3622,685.6713 C 605.1372,691.88039 575.63856,698.06913 543.43269,701.18153 C 513.67133,704.05765 434.8373,706.14095 402.65743,704.90169 z"
       id="path8446" />
  </g>
</svg>
