<?xml version="1.0" encoding="UTF-8" standalone="no"?>
<!-- Created with Inkscape (http://www.inkscape.org/) -->

<svg
   xmlns:dc="http://purl.org/dc/elements/1.1/"
   xmlns:cc="http://creativecommons.org/ns#"
   xmlns:rdf="http://www.w3.org/1999/02/22-rdf-syntax-ns#"
   xmlns:svg="http://www.w3.org/2000/svg"
   xmlns="http://www.w3.org/2000/svg"
   xmlns:sodipodi="http://sodipodi.sourceforge.net/DTD/sodipodi-0.dtd"
   xmlns:inkscape="http://www.inkscape.org/namespaces/inkscape"
   width="1539.9004"
   height="434.98953"
   id="svg2393"
   sodipodi:version="0.32"
   inkscape:version="0.48.1 r9760"
   sodipodi:docname="zhockon_brand.svg"
   inkscape:output_extension="org.inkscape.output.svg.inkscape"
   version="1.1">
  <defs
     id="defs2395">
    <inkscape:perspective
       sodipodi:type="inkscape:persp3d"
       inkscape:vp_x="0 : 600 : 1"
       inkscape:vp_y="0 : 1000 : 0"
       inkscape:vp_z="1600 : 600 : 1"
       inkscape:persp3d-origin="800 : 400 : 1"
       id="perspective2401" />
  </defs>
  <sodipodi:namedview
     id="base"
     pagecolor="#ffffff"
     bordercolor="#666666"
     borderopacity="1.0"
     inkscape:pageopacity="0.0"
     inkscape:pageshadow="2"
     inkscape:zoom="0.70710678"
     inkscape:cx="964.04396"
     inkscape:cy="279.68378"
     inkscape:current-layer="layer1"
     inkscape:document-units="px"
     showgrid="false"
     inkscape:window-width="1680"
     inkscape:window-height="1000"
     inkscape:window-x="-4"
     inkscape:window-y="-3"
     inkscape:window-maximized="1"
     fit-margin-top="0"
     fit-margin-left="0"
     fit-margin-right="0"
     fit-margin-bottom="0" />
  <metadata
     id="metadata2398">
    <rdf:RDF>
      <cc:Work
         rdf:about="">
        <dc:format>image/svg+xml</dc:format>
        <dc:type
           rdf:resource="http://purl.org/dc/dcmitype/StillImage" />
      </cc:Work>
    </rdf:RDF>
  </metadata>
  <g
     id="layer1"
     inkscape:label="Layer 1"
     inkscape:groupmode="layer"
     transform="translate(-21.000164,-313.01046)">
    <text
       xml:space="preserve"
       style="font-size:210.7633667px;font-style:normal;font-variant:normal;font-weight:bold;font-stretch:normal;fill:#000000;fill-opacity:1;stroke:none;font-family:DejaVu Sans;-inkscape-font-specification:DejaVu Sans Bold"
       x="414.5321"
       y="606.63123"
       id="text2407"><tspan
         sodipodi:role="line"
         id="tspan2409"
         x="414.5321"
         y="606.63123"
         style="font-size:195px;font-family:Good Times;-inkscape-font-specification:Good Times">ZHOCK<tspan
   style="font-size:195px;fill:#ff0000;font-family:Good Times;-inkscape-font-specification:Good Times"
   id="tspan2411">ON</tspan></tspan></text>
    <g
       id="g2492"
       transform="matrix(1.7404116,0,0,1.7412792,-126.46698,269.4423)">
      <path
         style="fill:#000000;fill-opacity:1"
         d="m 99.914876,99.110185 c -9.843885,33.415675 -9.843885,33.415675 0,33.415675 -8.438534,0 -19.487137,0.26385 -13.458038,64.47868 1.004084,10.69432 2.208802,23.16235 3.614153,37.69826 0,24.04163 0,18.73402 0,33.23402 0,9.19239 35.001789,9.19239 35.001789,0 14.68585,0 14.68585,0 0,-31.81981 -9.46048,-20.49801 0,-47.09969 0,-103.59115 0,135.41096 38.34717,80.96373 26.51651,80.96373 1.9774,0.66987 -26.51651,45.25484 0,45.25484 6.65606,0 -26.51651,9.19239 0,9.19239 45.52,0 17.53704,-40.32665 27.13522,-40.32665 12.26652,0 0,0 18.38478,0 7.07969,0 -18.38478,40.32665 27.66555,40.32665 30.05204,0 -8.83884,-9.19239 0,-9.19239 30.05204,10e-6 -2.21944,-44.51739 0,-45.25484 -14.98379,0 30.05204,54.44723 30.05204,-80.96373 0,45.16692 9.5868,83.64889 0.088,103.59115 -15.15625,31.81981 -15.15625,31.81981 -0.088,31.81981 0,9.19239 35.00178,9.19239 35.00178,0 0,-20.5 0,-9.19239 0,-33.23402 9.89949,-102.17694 -0.28871,-102.17694 -9.89949,-102.17694 9.61078,0 9.61078,0 -0.28871,-33.41568 -18.22224,-13.53903 -21.11694,-15.374685 -24.81358,-15.374685 -49.89088,4e-6 -38.89088,-53.486 -57.71759,-53.486 0,-6.97162 -18.38478,-6.97162 -18.38478,0 -17.58928,0 -8.08928,53.486003 -53.65173,53.486 -4.24264,0 -9.22442,3.086503 -25.157904,15.37469 z m 87.383304,45.926975 c -22.87183,1e-5 -29.07683,1e-5 -47.37616,0 -5.00714,0 -5.00714,-36.92699 0,-36.92699 0,-6.3833 47.37616,-6.3833 47.37616,0 -1e-5,20.38267 -1e-5,20.2866 0,36.92699 z m 52.67945,-36.92699 c 4.93725,0 4.93725,36.92699 0,36.92699 -24.33225,1e-5 -21.65979,1e-5 -47.55293,0 -1e-5,-19.10083 -1e-5,-19.21571 0,-36.92699 0,-6.3833 47.55293,-6.3833 47.55293,0 z m -0.219,41.75 c 0,2.9831 15.06825,-0.41366 0,52.62942 0,11.5 -100,11.5 -100,0 -14.68585,-53.87347 0,-50.96608 0,-52.62942 42.24331,0 57.20714,0 100,0 z"
         id="path2464"
         sodipodi:nodetypes="ccscccsccscsscsccscccccsccscccccccccccccccc"
         inkscape:connector-curvature="0" />
      <path
         style="fill:none;stroke:#000000;stroke-width:1.08521688px;stroke-linecap:butt;stroke-linejoin:miter;stroke-opacity:1"
         d="m 173.22898,78.048249 c 0,-3.305219 4.67942,-5.286755 10.28918,-5.944963 8.39386,-0.984875 18.87066,0.993063 18.87066,5.932633 0,8.410917 -29.15984,8.540643 -29.15984,0.01233 z"
         id="path2466"
         sodipodi:nodetypes="cscc"
         inkscape:connector-curvature="0" />
      <path
         style="fill:none;stroke:#000000;stroke-width:1px;stroke-linecap:butt;stroke-linejoin:miter;stroke-opacity:1"
         d="m 178.72451,58.284089 c 0,-2.042527 6.06074,4.213346 7.06564,4.213346 2.33457,0 0.79962,-4.950108 2.26636,-6.221029 1.40809,1.114118 0.0305,6.221029 2.10512,6.221029 1.08683,0 6.94766,-6.268947 6.94766,-4.339648 0,-5.52676 -6.06938,-2.201454 -9.00635,-2.609601 -2.43613,0.450998 -9.37843,-3.113362 -9.37843,2.735903 z"
         id="path2468"
         sodipodi:nodetypes="cscsccc"
         inkscape:connector-curvature="0" />
      <path
         style="fill:none;stroke:#000000;stroke-width:1px;stroke-linecap:butt;stroke-linejoin:miter;stroke-opacity:1"
         d="m 173.3125,77.17297 c 0,0.985472 1.48923,3.32703 3.9375,3.32703 0,-3.32703 0.53661,-6.104518 0.53661,-6.443784 0,-0.846983 -0.73884,3.116754 0.97999,3.116754 1.63549,0 0.24022,0 2.41017,0 2.16995,0 0.22436,-4.991852 1.26257,-5.038137 0.73326,-0.03269 -1.2985,5.038137 1.44822,5.038137 2.74673,0 1.98422,0 2.78038,0 2.85407,0 1.21854,-5.913254 1.7884,-5.39169 0.78497,0.718447 -0.73615,5.39169 1.22412,5.39169 1.96027,0 2.92847,0 3.66267,0 1.17957,0 1.00843,-4.891471 1.0337,-4.684583 0.114,0.933299 -0.25799,4.684583 0.9009,4.684583 1.15889,0 1.468,0 2.36414,0 0.77639,0 0.78443,-1.976368 0.84296,-2.881919 0.527,0.227386 0.26517,2.88183 0.26517,6.208949 2.20511,0 3.5625,-2.8407 3.5625,-3.32703"
         id="path2470"
         transform="translate(-0.08512413,0.1101747)"
         sodipodi:nodetypes="cccszszsszsszsccc"
         inkscape:connector-curvature="0" />
      <path
         style="fill:#000000;fill-opacity:1;fill-rule:evenodd;stroke:#000000;stroke-width:0.1;stroke-linecap:square;stroke-linejoin:round;stroke-miterlimit:4;stroke-opacity:1;stroke-dasharray:none"
         d="m 186.73558,83.692694 c -3.76875,-0.107945 -7.21373,-0.801465 -9.5625,-1.925058 -0.71539,-0.342225 -1.89068,-1.069528 -1.82861,-1.131596 0.0124,-0.01243 0.22415,0.04748 0.47047,0.133142 0.46121,0.160391 1.13377,0.272511 1.65502,0.275899 l 0.29687,0.0019 4e-4,-0.546875 c 5.1e-4,-0.68302 0.12262,-2.971978 0.16058,-3.009935 0.0155,-0.01545 0.12713,0.01914 0.24818,0.07686 0.18835,0.08982 0.4512,0.104951 1.82323,0.104951 1.5043,0 1.61998,-0.0081 1.87612,-0.132144 0.15013,-0.07268 0.31693,-0.199242 0.37067,-0.28125 0.0537,-0.08201 0.11797,-0.149106 0.14275,-0.149106 0.0248,0 0.1692,0.09467 0.32094,0.210374 0.15173,0.115706 0.37148,0.242268 0.48833,0.28125 0.13929,0.04647 0.85109,0.07088 2.06699,0.07088 2.17363,0 2.26654,-0.01758 2.79447,-0.528924 0.18278,-0.177046 0.33234,-0.296231 0.33234,-0.264857 0,0.135319 0.39999,0.54473 0.65084,0.666163 0.2647,0.128135 0.34146,0.131666 2.4856,0.114294 l 2.21248,-0.01793 0.19499,-0.15625 c 0.10724,-0.08594 0.2305,-0.219792 0.27391,-0.297454 l 0.0789,-0.141202 0.0999,0.152241 c 0.0549,0.08373 0.18288,0.217587 0.28433,0.297454 0.18008,0.141764 0.22114,0.145654 1.73057,0.163876 1.38914,0.01677 1.56313,0.0075 1.71373,-0.09117 l 0.16762,-0.10983 -0.0463,1.804085 -0.0463,1.804085 0.57174,-0.04058 c 0.50164,-0.03561 0.81297,-0.112678 1.53428,-0.379817 0.23913,-0.08856 -0.2641,0.304267 -0.79335,0.619303 -1.83448,1.091972 -4.72447,1.909786 -7.9433,2.247812 -0.91579,0.09617 -3.47128,0.229342 -3.9821,0.207512 -0.15469,-0.0066 -0.53437,-0.01927 -0.84375,-0.02813 l 0,-10e-7 z"
         id="path2472"
         transform="translate(-0.08512413,0.1101747)"
         inkscape:connector-curvature="0" />
      <path
         sodipodi:type="arc"
         style="fill:#ffffff;fill-opacity:1;fill-rule:evenodd;stroke:none"
         id="path2474"
         sodipodi:cx="177.5625"
         sodipodi:cy="38.062496"
         sodipodi:rx="3.8125"
         sodipodi:ry="3.5625"
         d="m 181.375,38.062496 c 0,1.967515 -1.70691,3.5625 -3.8125,3.5625 -2.10559,0 -3.8125,-1.594985 -3.8125,-3.5625 0,-1.967514 1.70691,-3.5625 3.8125,-3.5625 2.10559,0 3.8125,1.594986 3.8125,3.5625 z"
         transform="matrix(1.7675624,0,0,1.280702,-135.12829,-1.9238512)" />
      <path
         sodipodi:type="arc"
         style="fill:#ffffff;fill-opacity:1;fill-rule:evenodd;stroke:none"
         id="path2476"
         sodipodi:cx="177.5625"
         sodipodi:cy="38.062496"
         sodipodi:rx="3.8125"
         sodipodi:ry="3.5625"
         d="m 181.375,38.062496 c 0,1.967515 -1.70691,3.5625 -3.8125,3.5625 -2.10559,0 -3.8125,-1.594985 -3.8125,-3.5625 0,-1.967514 1.70691,-3.5625 3.8125,-3.5625 2.10559,0 3.8125,1.594986 3.8125,3.5625 z"
         transform="matrix(1.8052921,0,0,1.2807016,-122.98707,-1.9575251)" />
      <path
         sodipodi:type="arc"
         style="fill:#ff0000;fill-opacity:1;fill-rule:evenodd;stroke:none"
         id="path2478"
         sodipodi:cx="177.5625"
         sodipodi:cy="38.062496"
         sodipodi:rx="3.8125"
         sodipodi:ry="3.5625"
         d="m 181.375,38.062496 c 0,1.967515 -1.70691,3.5625 -3.8125,3.5625 -2.10559,0 -3.8125,-1.594985 -3.8125,-3.5625 0,-1.967514 1.70691,-3.5625 3.8125,-3.5625 2.10559,0 3.8125,1.594986 3.8125,3.5625 z"
         transform="matrix(0.7938416,0,0,0.7938416,37.856397,16.661052)" />
      <path
         sodipodi:type="arc"
         style="fill:#ff0000;fill-opacity:1;fill-rule:evenodd;stroke:none"
         id="path2480"
         sodipodi:cx="177.5625"
         sodipodi:cy="38.062496"
         sodipodi:rx="3.8125"
         sodipodi:ry="3.5625"
         d="m 181.375,38.062496 c 0,1.967515 -1.70691,3.5625 -3.8125,3.5625 -2.10559,0 -3.8125,-1.594985 -3.8125,-3.5625 0,-1.967514 1.70691,-3.5625 3.8125,-3.5625 2.10559,0 3.8125,1.594986 3.8125,3.5625 z"
         transform="matrix(0.7938416,0,0,0.7938416,56.358593,16.627361)" />
      <path
         sodipodi:type="arc"
         style="fill:#000000;fill-opacity:1;fill-rule:evenodd;stroke:none"
         id="path2482"
         sodipodi:cx="177.5625"
         sodipodi:cy="38.062496"
         sodipodi:rx="3.8125"
         sodipodi:ry="3.5625"
         d="m 181.375,38.062496 c 0,1.967515 -1.70691,3.5625 -3.8125,3.5625 -2.10559,0 -3.8125,-1.594985 -3.8125,-3.5625 0,-1.967514 1.70691,-3.5625 3.8125,-3.5625 2.10559,0 3.8125,1.594986 3.8125,3.5625 z"
         transform="matrix(0.4460842,0,0,0.4460842,99.672141,29.897567)" />
      <path
         sodipodi:type="arc"
         style="fill:#000000;fill-opacity:1;fill-rule:evenodd;stroke:none"
         id="path2484"
         sodipodi:cx="177.5625"
         sodipodi:cy="38.062496"
         sodipodi:rx="3.8125"
         sodipodi:ry="3.5625"
         d="m 181.375,38.062496 c 0,1.967515 -1.70691,3.5625 -3.8125,3.5625 -2.10559,0 -3.8125,-1.594985 -3.8125,-3.5625 0,-1.967514 1.70691,-3.5625 3.8125,-3.5625 2.10559,0 3.8125,1.594986 3.8125,3.5625 z"
         transform="matrix(0.4460842,0,0,0.4460842,118.05797,29.863876)" />
      <path
         style="fill:none;stroke:#000000;stroke-width:1px;stroke-linecap:butt;stroke-linejoin:miter;stroke-opacity:1"
         d="m 176.68831,52.247459 c 7.88013,-2.563259 7.97243,-2.563259 11.93243,-2.563259 4.17529,0 4.03111,0 11.49048,3.181978"
         id="path2486"
         transform="translate(-0.08512413,0.1101747)"
         sodipodi:nodetypes="ccc"
         inkscape:connector-curvature="0" />
      <path
         style="fill:none;stroke:none"
         d="m 200.29617,65.009728 c -0.71101,-0.06817 -1.36523,-0.187023 -3.31456,-0.602159 -3.51492,-0.74855 -5.67082,-1.009524 -8.3969,-1.016456 -2.67667,-0.0068 -4.73894,0.236435 -7.46881,0.880942 -1.58492,0.374191 -3.27451,0.658137 -4.24896,0.714065 -1.59795,0.09171 -2.29178,-0.210127 -2.29178,-0.997005 0,-0.532918 0.17051,-0.997339 1.023,-2.786444 0.4083,-0.856883 0.89206,-1.990465 1.07502,-2.519068 l 0.33266,-0.961096 0,-2.209709 c 0,-1.21534 -0.0276,-2.332932 -0.0614,-2.483538 l -0.0614,-0.273829 2.66885,-0.854444 c 3.11907,-0.998586 4.70894,-1.415046 5.95507,-1.559908 0.58748,-0.06829 1.8452,-0.09123 3.62393,-0.06609 2.57428,0.03638 2.77039,0.05088 3.56387,0.263542 1.09574,0.293662 2.11943,0.681365 4.86136,1.841139 2.20429,0.932361 2.25372,0.958855 2.2455,1.203551 -0.005,0.137611 -0.0579,0.786758 -0.11851,1.442548 -0.20972,2.271018 -0.0356,2.867614 1.85804,6.364858 1.00902,1.863514 1.26215,2.755816 0.92025,3.243938 -0.23944,0.341842 -1.04928,0.482164 -2.16524,0.375167 z m -11.17875,-4.105241 c 0.39659,-0.340295 1.34365,-1.167817 2.10458,-1.838938 1.66273,-1.466486 3.6061,-3.032128 4.12179,-3.320641 l 0.37505,-0.209833 -0.0624,0.209834 c -0.0629,0.211287 -0.74247,1.526471 -1.09592,2.12082 l -0.19029,0.319999 0.20085,0.130935 c 0.11046,0.07201 0.32705,0.195933 0.48131,0.275379 l 0.28047,0.144446 0.42749,-0.772154 c 0.86574,-1.563725 1.25723,-2.606309 1.14564,-3.05093 -0.0937,-0.373189 -0.39332,-0.594122 -0.80282,-0.591908 -0.88223,0.0048 -2.16089,0.916359 -6.03109,4.29972 -1.02928,0.899799 -1.88854,1.642426 -1.90946,1.650277 -0.0209,0.0079 -0.80111,-0.62212 -1.73373,-1.399938 -3.03858,-2.534206 -5.30473,-4.132905 -6.34469,-4.475991 -0.95321,-0.314466 -1.54121,0.111045 -1.40536,1.016984 0.0915,0.609955 1.5849,3.326425 1.82877,3.326425 0.045,0 0.24996,-0.107726 0.45552,-0.239392 0.20557,-0.131666 0.38645,-0.247102 0.40195,-0.256527 0.0155,-0.0094 -0.19421,-0.36189 -0.46604,-0.783257 -0.53455,-0.82862 -1.14825,-1.991193 -1.05111,-1.991193 0.16778,0 1.34045,0.725604 2.3245,1.438312 1.256,0.909673 2.60809,1.98885 4.59825,3.670108 1.12103,0.947033 1.39118,1.136704 1.4968,1.050892 0.0709,-0.05759 0.45337,-0.383134 0.84996,-0.723429 l 0,0 z"
         id="path2488"
         transform="translate(-0.08512413,0.1101747)"
         inkscape:connector-curvature="0" />
      <path
         style="fill:#000000;fill-opacity:1;fill-rule:evenodd;stroke:#000000;stroke-width:0.00976562;stroke-linecap:square;stroke-linejoin:round;stroke-miterlimit:4;stroke-opacity:1;stroke-dasharray:none"
         d="m 185.40909,61.532893 c -0.23633,-0.169096 -1.24268,-0.953102 -2.23633,-1.742236 -1.93009,-1.532826 -2.83421,-2.176462 -3.37429,-2.402121 -0.18516,-0.07736 -0.33569,-0.195004 -0.33451,-0.261422 0.004,-0.244953 0.37216,-0.909801 0.64472,-1.165383 0.82106,-0.769914 1.86059,-0.811683 5.39117,-0.216622 0.76965,0.12972 1.5437,0.235855 1.72012,0.235855 l 0.32075,0 -0.22181,0.438136 c -0.26458,0.522618 -0.39728,1.29472 -0.53377,3.105836 -0.10532,1.397609 -0.27996,2.054471 -0.59036,2.220595 -0.26015,0.139225 -0.31447,0.124522 -0.78569,-0.212638 l 0,0 z"
         id="path2490"
         transform="translate(-0.08512413,0.1101747)"
         inkscape:connector-curvature="0" />
      <path
         style="fill:#000000;fill-opacity:1;fill-rule:evenodd;stroke:#000000;stroke-width:0.00976562;stroke-linecap:square;stroke-linejoin:round;stroke-miterlimit:4;stroke-opacity:1;stroke-dasharray:none"
         d="m 189.99101,61.718269 c -0.26619,-0.21285 -0.38104,-0.759566 -0.52825,-2.514649 -0.14213,-1.694453 -0.31515,-2.579558 -0.58701,-3.002929 -0.13843,-0.215587 -0.13323,-0.219732 0.2762,-0.21998 0.22951,-1.39e-4 1.12041,-0.113162 1.97979,-0.251162 1.90049,-0.305187 3.45661,-0.400259 4.02388,-0.245843 0.52895,0.143986 0.98648,0.532779 1.21248,1.030327 0.25799,0.567958 0.22828,0.662611 -0.28431,0.905887 -0.55944,0.265511 -1.24067,0.778228 -3.34072,2.514333 -1.49615,1.236859 -2.38694,1.906086 -2.53714,1.906086 -0.0342,0 -0.13095,-0.05493 -0.21491,-0.12207 l -1e-5,0 z"
         id="path2492"
         transform="translate(-0.08512413,0.1101747)"
         inkscape:connector-curvature="0" />
      <path
         style="fill:none;stroke:#000000;stroke-width:1px;stroke-linecap:butt;stroke-linejoin:miter;stroke-opacity:1"
         d="m 207.37026,41.418274 c 6.63224,-6.083146 4.6875,13.476562 4.6875,13.476562"
         id="path2494"
         sodipodi:nodetypes="cc"
         inkscape:connector-curvature="0" />
      <path
         style="fill:none;stroke:#000000;stroke-width:0.80315369px;stroke-linecap:butt;stroke-linejoin:miter;stroke-opacity:1"
         d="m 207.10545,42.917234 c 5.3267,-4.885702 3.76478,10.82375 3.76478,10.82375"
         id="path2496"
         sodipodi:nodetypes="cc"
         inkscape:connector-curvature="0" />
      <path
         style="fill:none;stroke:#000000;stroke-width:1px;stroke-linecap:butt;stroke-linejoin:miter;stroke-opacity:1"
         d="m 168.8651,41.361006 c -6.63224,-6.083146 -4.6875,13.476562 -4.6875,13.476562"
         id="path2499"
         sodipodi:nodetypes="cc"
         inkscape:connector-curvature="0" />
      <path
         style="fill:none;stroke:#000000;stroke-width:0.80315369px;stroke-linecap:butt;stroke-linejoin:miter;stroke-opacity:1"
         d="m 169.12991,42.859966 c -5.3267,-4.885702 -3.76478,10.82375 -3.76478,10.82375"
         id="path2501"
         sodipodi:nodetypes="cc"
         inkscape:connector-curvature="0" />
      <path
         style="fill:#ffffff;fill-opacity:1;fill-rule:evenodd;stroke:#000000;stroke-width:0.01953125;stroke-linecap:square;stroke-linejoin:round;stroke-miterlimit:4;stroke-opacity:1;stroke-dasharray:none"
         d="m 174.82923,65.763591 c -0.47721,-0.47722 -0.40565,-0.864281 0.54113,-2.926713 1.53181,-3.336859 1.6321,-3.740287 1.59749,-6.425836 l -0.0317,-2.460418 1.43828,-0.447851 c 5.93075,-1.846729 5.9073,-1.841903 9.44754,-1.944557 4.2135,-0.122172 4.88504,0.04232 11.2426,2.753967 l 0.69718,0.297365 -0.17991,1.525778 c -0.23837,2.021609 -0.0245,2.875802 1.45127,5.796929 1.46484,2.899463 1.58609,3.281682 1.21094,3.817287 -0.40936,0.584428 -1.91248,0.538209 -5.30003,-0.162968 -4.2362,-0.876836 -6.13547,-1.059543 -9.68137,-0.931332 -2.54448,0.092 -3.79395,0.2474 -6.47339,0.805107 -3.89303,0.810311 -5.37741,0.885834 -5.96,0.303242 l -1e-5,0 z m 11.97421,-1.953201 c 0.63809,-0.501912 0.90727,-1.331318 1.08955,-3.35709 l 0.1458,-1.620328 0.1519,1.5625 c 0.0835,0.859375 0.2343,1.887377 0.33501,2.284449 0.18345,0.723268 0.96075,1.524145 1.47927,1.524145 0.52226,0 1.53013,-0.648512 3.47958,-2.238926 2.45052,-1.999201 3.01252,-2.388389 3.69689,-2.560154 0.52121,-0.130819 0.54231,-0.179438 0.43081,-0.992916 -0.35613,-2.598262 -1.85232,-3.283405 -5.89354,-2.698795 -2.44645,0.353904 -4.84001,0.32267 -7.90212,-0.103125 -2.26807,-0.315381 -3.48727,-0.162822 -4.32374,0.541023 -0.72765,0.61227 -1.33004,1.843465 -1.33604,2.730627 -0.004,0.533735 0.0673,0.634766 0.44576,0.634766 0.5671,0 1.75209,0.748947 3.74917,2.369568 3.00627,2.439574 3.51631,2.660041 4.45171,1.924252 l -1e-5,4e-6 z"
         id="path2503"
         inkscape:connector-curvature="0" />
      <path
         style="fill:#ffffff;fill-opacity:1;fill-rule:evenodd;stroke:#000000;stroke-width:0.01953125;stroke-linecap:square;stroke-linejoin:round;stroke-miterlimit:4;stroke-opacity:1;stroke-dasharray:none"
         d="m 187.61264,92.349164 c -4.69072,-0.34058 -10.06295,-2.143545 -14.89258,-4.99807 l -1.70898,-1.01009 0.006,-2.64278 c 0.0124,-5.734046 0.53979,-9.480242 1.724,-12.245084 0.60974,-1.423613 1.539,-2.159201 3.65736,-2.895119 2.65175,-0.92122 5.45333,-1.292691 10.64992,-1.412113 6.12281,-0.140705 9.04651,0.184969 12.91601,1.438734 1.23477,0.400077 1.64034,0.638981 2.21462,1.304506 0.93585,1.084537 1.53223,2.290674 2.15975,4.367961 0.45731,1.51384 0.53003,2.141967 0.60616,5.235834 0.0476,1.933594 0.002,4.272942 -0.10106,5.198551 -0.17859,1.602277 -0.2239,1.71716 -0.94556,2.397242 -1.30615,1.230883 -3.8971,2.852649 -5.78183,3.619039 -2.20501,0.896619 -3.95496,1.327803 -6.40194,1.57741 -1.81711,0.185358 -2.32151,0.193225 -4.10157,0.06398 z m 4.98047,-7.773524 c 5.38378,-0.775228 9.00778,-2.531697 10.08379,-4.887384 0.47965,-1.050071 0.4646,-2.503834 -0.0366,-3.5392 -1.45794,-3.011705 -7.28427,-4.975826 -14.74215,-4.96975 -7.50971,0.0061 -13.21562,1.910334 -14.75277,4.923393 -0.4801,0.941102 -0.49873,2.68218 -0.0391,3.653695 1.15932,2.450356 5.41294,4.374582 10.99073,4.97192 1.78351,0.191 6.72619,0.102184 8.49609,-0.152672 l 0,-2e-6 z"
         id="path2505"
         transform="translate(-0.08512413,0.1101747)"
         inkscape:connector-curvature="0" />
      <path
         style="fill:#ffffff;fill-opacity:1;fill-rule:evenodd;stroke:#000000;stroke-width:0.01953125;stroke-linecap:square;stroke-linejoin:round;stroke-miterlimit:4;stroke-opacity:1;stroke-dasharray:none"
         d="m 195.2367,76.283125 c -0.1112,-0.207779 -0.20218,-1.000469 -0.20218,-1.761531 l 0,-1.383747 0.53711,0.118709 c 0.29541,0.06529 0.95871,0.251178 1.474,0.413084 l 0.93689,0.294375 -0.11747,0.908997 c -0.24077,1.862976 -0.18356,1.7879 -1.36254,1.7879 -0.85168,0 -1.10391,-0.07528 -1.26581,-0.377785 l 0,-2e-6 z"
         id="path2507"
         transform="translate(-0.08512413,0.1101747)"
         inkscape:connector-curvature="0" />
      <path
         style="fill:#ffffff;fill-opacity:1;fill-rule:evenodd;stroke:#000000;stroke-width:0.01953125;stroke-linecap:square;stroke-linejoin:round;stroke-miterlimit:4;stroke-opacity:1;stroke-dasharray:none"
         d="m 199.33139,77.240824 0,-2.555121 0.61365,0.352836 c 0.6296,0.362023 1.7301,1.698898 1.7301,2.101721 0,0.472117 -1.17548,2.051546 -1.74668,2.346925 l -0.59707,0.308758 0,-2.555119 z"
         id="path2509"
         transform="translate(-0.08512413,0.1101747)"
         inkscape:connector-curvature="0" />
      <path
         style="fill:#ffffff;fill-opacity:1;fill-rule:evenodd;stroke:#000000;stroke-width:0.01953125;stroke-linecap:square;stroke-linejoin:round;stroke-miterlimit:4;stroke-opacity:1;stroke-dasharray:none"
         d="m 189.35318,76.127193 c -0.11161,-0.293549 -0.17535,-1.266564 -0.14165,-2.162258 l 0.0613,-1.628537 0.78125,0.105416 c 0.42969,0.05797 1.41846,0.16344 2.19727,0.234365 l 1.41601,0.128956 0,1.312804 c 0,0.722045 -0.0965,1.589594 -0.21442,1.927891 l -0.21442,0.615082 -1.84119,0 c -1.82603,0 -1.84287,-0.0044 -2.04412,-0.533721 l 0,2e-6 z"
         id="path2511"
         transform="translate(-0.08512413,0.1101747)"
         inkscape:connector-curvature="0" />
      <path
         style="fill:#ffffff;fill-opacity:1;fill-rule:evenodd;stroke:#000000;stroke-width:0.01953125;stroke-linecap:square;stroke-linejoin:round;stroke-miterlimit:4;stroke-opacity:1;stroke-dasharray:none"
         d="m 183.44348,76.414072 c -0.34694,-0.253687 -0.44491,-0.983193 -0.36509,-2.718514 0.05,-1.086687 -0.0103,-1.059478 2.75259,-1.242767 l 2.02695,-0.134465 -0.0865,1.808154 c -0.11154,2.332867 -0.30933,2.534432 -2.48689,2.534432 -0.90331,0 -1.6383,-0.09854 -1.84111,-0.246838 l 0,-2e-6 z"
         id="path2513"
         transform="translate(-0.08512413,0.1101747)"
         inkscape:connector-curvature="0" />
      <path
         style="fill:#ffffff;fill-opacity:1;fill-rule:evenodd;stroke:#000000;stroke-width:0.01953125;stroke-linecap:square;stroke-linejoin:round;stroke-miterlimit:4;stroke-opacity:1;stroke-dasharray:none"
         d="m 178.52329,76.332728 c -0.40494,-0.404951 -0.31415,-2.341699 0.12254,-2.613672 0.28688,-0.178673 2.76407,-0.786933 2.85096,-0.700041 0.0273,0.02731 0.0675,0.777338 0.0894,1.666731 0.0466,1.8956 -0.0129,1.967826 -1.62565,1.972176 -0.78141,0.0021 -1.20606,-0.09398 -1.43728,-0.325196 l -1e-5,2e-6 z"
         id="path2515"
         transform="translate(-0.08512413,0.1101747)"
         inkscape:connector-curvature="0" />
      <path
         style="fill:#ffffff;fill-opacity:1;fill-rule:evenodd;stroke:#000000;stroke-width:0.01953125;stroke-linecap:square;stroke-linejoin:round;stroke-miterlimit:4;stroke-opacity:1;stroke-dasharray:none"
         d="m 175.48797,79.34181 c -0.89453,-0.602824 -1.58698,-1.659334 -1.42664,-2.176701 0.22948,-0.740449 0.88039,-1.486805 1.88907,-2.166092 0.54789,-0.368966 1.02984,-0.637172 1.07101,-0.596004 0.0412,0.04116 -0.0356,1.269161 -0.17069,2.728874 -0.16288,1.760548 -0.32267,2.654025 -0.47465,2.654025 -0.126,0 -0.52565,-0.199846 -0.8881,-0.444102 l 0,0 z"
         id="path2517"
         transform="translate(-0.08512413,0.1101747)"
         inkscape:connector-curvature="0" />
      <path
         style="fill:#ffffff;fill-opacity:1;fill-rule:evenodd;stroke:#000000;stroke-width:0.01953125;stroke-linecap:square;stroke-linejoin:round;stroke-miterlimit:4;stroke-opacity:1;stroke-dasharray:none"
         d="m 187.34892,44.332536 c -0.98868,-0.175412 -1.77874,-0.664549 -3.43468,-2.126441 -2.52162,-2.226135 -4.60996,-3.200053 -7.48277,-3.489662 -1.67682,-0.169039 -1.98988,-0.280143 -1.98988,-0.706172 0,-0.948451 4.33693,-1.814422 10.05859,-2.00843 9.07669,-0.307769 16.73183,0.465525 17.5569,1.773533 0.34881,0.552973 -0.12172,0.770321 -2.05356,0.94858 -1.9759,0.182327 -3.53433,0.573946 -4.75527,1.194961 -0.88914,0.452244 -2.73928,1.836655 -3.3227,2.486289 -0.71886,0.800452 -2.17569,1.746432 -2.94742,1.913887 -0.42185,0.09154 -1.155,0.09759 -1.6292,0.01346 l -1e-5,-2e-6 z"
         id="path2519"
         inkscape:connector-curvature="0" />
    </g>
    <path
       style="fill:#000000;fill-opacity:1;fill-rule:evenodd;stroke:#000000;stroke-width:0.0340009;stroke-linecap:square;stroke-linejoin:round;stroke-miterlimit:4;stroke-opacity:1;stroke-dasharray:none"
       d="m 161.8421,353.68522 c 0.4266,-7.34994 1.35786,-10.51517 3.02414,-10.2782 0.65805,0.0936 0.74314,0.28409 0.65596,1.46792 -0.17055,2.31527 -0.76959,4.95294 -1.98633,8.74547 -1.62363,5.0607 -1.98443,5.07451 -1.69377,0.0648 l 0,0 z"
       id="path2521"
       inkscape:connector-curvature="0" />
    <path
       style="fill:#000000;fill-opacity:1;fill-rule:evenodd;stroke:#000000;stroke-width:0.0340009;stroke-linecap:square;stroke-linejoin:round;stroke-miterlimit:4;stroke-opacity:1;stroke-dasharray:none"
       d="m 160.19566,349.63624 c 0.23757,-5.53621 1.42331,-8.72156 3.3317,-8.94965 0.49341,-0.059 1.23883,0.13233 1.65667,0.42511 0.75379,0.5283 0.751,0.53235 -0.3806,0.53235 -0.85994,0 -1.41251,0.28879 -2.24756,1.17456 -1.2439,1.31959 -1.7368,2.96345 -2.20096,7.34108 l -0.30506,2.87749 0.14581,-3.40094 z"
       id="path2523"
       inkscape:connector-curvature="0" />
    <path
       style="fill:#000000;fill-opacity:1;fill-rule:evenodd;stroke:#000000;stroke-width:0.0340009;stroke-linecap:square;stroke-linejoin:round;stroke-miterlimit:4;stroke-opacity:1;stroke-dasharray:none"
       d="m 241.67163,355.53279 c -0.0837,-6.22624 -0.67751,-10.24045 -1.77886,-12.02321 -0.7423,-1.20167 -2.52514,-2.04807 -3.51424,-1.66835 -0.9696,0.37228 -0.61105,-0.15417 0.49465,-0.72627 1.49202,-0.77193 2.54326,-0.39771 3.35498,1.19431 1.18313,2.32034 1.73485,6.78867 1.62207,13.13781 l -0.10236,5.75235 -0.0762,-5.66664 z"
       id="path2525"
       inkscape:connector-curvature="0" />
    <path
       style="fill:#000000;fill-opacity:1;fill-rule:evenodd;stroke:#000000;stroke-width:0.0340009;stroke-linecap:square;stroke-linejoin:round;stroke-miterlimit:4;stroke-opacity:1;stroke-dasharray:none"
       d="m 238.5838,354.45955 c -1.13823,-2.73559 -2.25453,-6.67445 -2.58362,-9.11609 -0.19371,-1.43608 -0.14463,-1.59046 0.56718,-1.78526 0.96993,-0.26549 2.1073,0.91713 2.65656,2.76269 0.39649,1.33172 0.90486,10.62737 0.58129,10.62737 -0.10212,0 -0.65176,-1.11993 -1.22141,-2.48871 l 0,0 z"
       id="path2527"
       inkscape:connector-curvature="0" />
    <path
       style="fill:none;stroke:#000000;stroke-width:1.74084532px;stroke-linecap:butt;stroke-linejoin:miter;stroke-opacity:1"
       d="m 173.06235,348.75353 c 11.31755,-11.32328 21.30232,-2.27677 22.18243,-1.39612"
       id="path4062"
       sodipodi:nodetypes="cc"
       inkscape:connector-curvature="0" />
    <path
       style="fill:none;stroke:#000000;stroke-width:1.74084532px;stroke-linecap:butt;stroke-linejoin:miter;stroke-opacity:1"
       d="m 205.69509,348.42704 c 0.96524,-0.96569 10.88957,-11.06295 23.16925,-0.43532"
       id="path4064"
       sodipodi:nodetypes="cc"
       inkscape:connector-curvature="0" />
    <path
       style="fill:#ffffff;fill-opacity:1;fill-rule:evenodd;stroke:none"
       d="m 113.8485,516.40835 c -0.7741,-2.5395 -1.69046,-12.37427 -2.03659,-21.85505 -0.92942,-25.46605 1.59837,-35.70082 9.81383,-39.73434 12.13272,-5.95686 61.16516,-5.96461 74.22385,-0.0118 l 2.97539,1.35637 0,32.43101 0,32.43103 -41.78449,0 -41.78467,0 -1.40732,-4.61727 z"
       id="path2442"
       inkscape:connector-curvature="0" />
    <path
       style="fill:#ffffff;fill-opacity:1;fill-rule:evenodd;stroke:none"
       d="m 208.95749,488.73688 0.32806,-32.32107 3.2981,-1.5809 c 6.42941,-3.0818 17.87521,-4.40057 37.92895,-4.37002 22.87389,0.0348 35.36502,2.18081 40.06517,6.88321 4.70154,4.70389 6.01261,12.13949 5.9087,33.51138 -0.0693,14.22789 -0.60513,21.06844 -1.92945,24.62542 l -1.8337,4.92507 -42.04693,0.32401 -42.04715,0.32399 0.32825,-32.32109 z"
       id="path2444"
       inkscape:connector-curvature="0" />
    <path
       style="fill:#ffffff;fill-opacity:1;fill-rule:evenodd;stroke:none"
       d="m 182.82644,635.98966 c -27.53003,-1.0602 -51.65733,-4.72169 -60.45982,-9.17522 -4.41927,-2.23583 -4.50437,-2.42641 -8.32195,-18.62486 -7.96659,-33.80372 -9.79888,-58.01217 -5.1638,-68.22395 4.42221,-9.74294 -2.39674,-9.08986 94.91036,-9.08986 l 86.87267,0 3.16635,3.38599 c 6.43062,6.87662 7.68142,10.98297 7.59428,24.93323 -0.0919,14.72842 -1.16995,21.5931 -7.40422,47.15193 -4.41858,18.11473 -4.46855,18.22981 -8.89999,20.48061 -5.82447,2.95827 -19.87879,5.90682 -35.22295,7.38969 -14.1795,1.37031 -51.73916,2.36287 -67.07093,1.77244 z"
       id="path2446"
       inkscape:connector-curvature="0" />
  </g>
</svg>
