<?xml version="1.0" encoding="UTF-8" standalone="no"?>
<!-- Created with Inkscape (http://www.inkscape.org/) -->

<svg
   xmlns:dc="http://purl.org/dc/elements/1.1/"
   xmlns:cc="http://creativecommons.org/ns#"
   xmlns:rdf="http://www.w3.org/1999/02/22-rdf-syntax-ns#"
   xmlns:svg="http://www.w3.org/2000/svg"
   xmlns="http://www.w3.org/2000/svg"
   xmlns:sodipodi="http://sodipodi.sourceforge.net/DTD/sodipodi-0.dtd"
   xmlns:inkscape="http://www.inkscape.org/namespaces/inkscape"
   width="880"
   height="2500"
   id="svg2433"
   sodipodi:version="0.32"
   inkscape:version="0.47 r22583"
   sodipodi:docname="zhockon_sidebar_red.svg"
   inkscape:output_extension="org.inkscape.output.svg.inkscape"
   version="1.0">
  <defs
     id="defs2435">
    <inkscape:perspective
       sodipodi:type="inkscape:persp3d"
       inkscape:vp_x="0 : 600 : 1"
       inkscape:vp_y="0 : 1000 : 0"
       inkscape:vp_z="1600 : 600 : 1"
       inkscape:persp3d-origin="800 : 400 : 1"
       id="perspective2441" />
  </defs>
  <sodipodi:namedview
     id="base"
     pagecolor="#ffffff"
     bordercolor="#666666"
     borderopacity="1.0"
     inkscape:pageopacity="0.0"
     inkscape:pageshadow="2"
     inkscape:zoom="0.42426407"
     inkscape:cx="434.48426"
     inkscape:cy="1357.3638"
     inkscape:current-layer="layer1"
     inkscape:document-units="px"
     showgrid="false"
     inkscape:window-width="1680"
     inkscape:window-height="1000"
     inkscape:window-x="-2"
     inkscape:window-y="-3"
     inkscape:window-maximized="1" />
  <metadata
     id="metadata2438">
    <rdf:RDF>
      <cc:Work
         rdf:about="">
        <dc:format>image/svg+xml</dc:format>
        <dc:type
           rdf:resource="http://purl.org/dc/dcmitype/StillImage" />
      </cc:Work>
    </rdf:RDF>
  </metadata>
  <g
     id="layer1"
     inkscape:label="Layer 1"
     inkscape:groupmode="layer">
    <rect
       style="opacity:1;fill:#ff0000;fill-opacity:1;fill-rule:evenodd;stroke:none;stroke-width:50;stroke-linecap:square;stroke-linejoin:round;stroke-miterlimit:4;stroke-dasharray:none;stroke-opacity:1"
       id="rect3222"
       width="2500"
       height="880"
       x="0"
       y="-880"
       transform="matrix(0,1,-1,0,0,0)" />
    <text
       xml:space="preserve"
       style="font-size:260;font-style:normal;font-variant:normal;font-weight:bold;font-stretch:normal;fill:#000000;fill-opacity:1;stroke:none;stroke-width:1px;stroke-linecap:butt;stroke-linejoin:miter;stroke-opacity:1;font-family:Good Times;-inkscape-font-specification:Good Times"
       x="951.37341"
       y="-343.83389"
       id="text2407"
       transform="matrix(0,1,-1,0,0,0)"><tspan
         sodipodi:role="line"
         id="tspan2409"
         x="951.37341"
         y="-343.83389"
         style="fill:#000000;font-size:260;-inkscape-font-specification:Good Times;font-family:Good Times">ZHOCK<tspan
   style="fill:#ffffff;font-size:260;-inkscape-font-specification:Good Times;font-family:Good Times"
   id="tspan3316">ON</tspan></tspan></text>
    <g
       id="g2492"
       transform="matrix(3.6529505,0,0,3.6547721,-246.51884,-64.445143)">
      <path
         style="fill:#000000;fill-opacity:1"
         d="M 99.914876,99.110185 C 90.070991,132.52586 90.070991,132.52586 99.914876,132.52586 C 91.476342,132.52586 80.427739,132.78971 86.456838,197.00454 C 87.460922,207.69886 88.66564,220.16689 90.070991,234.7028 C 90.070991,258.74443 90.070991,253.43682 90.070991,267.93682 C 90.070991,277.12921 125.07278,277.12921 125.07278,267.93682 C 139.75863,267.93682 139.75863,267.93682 125.07278,236.11701 C 115.6123,215.619 125.07278,189.01732 125.07278,132.52586 C 125.07278,267.93682 163.41995,213.48959 151.58929,213.48959 C 153.56669,214.15946 125.07278,258.74443 151.58929,258.74443 C 158.24535,258.74443 125.07278,267.93682 151.58929,267.93682 C 197.10929,267.93682 169.12633,227.61017 178.72451,227.61017 C 190.99103,227.61017 178.72451,227.61017 197.10929,227.61017 C 204.18898,227.61017 178.72451,267.93682 224.77484,267.93682 C 254.82688,267.93682 215.936,258.74443 224.77484,258.74443 C 254.82688,258.74444 222.5554,214.22704 224.77484,213.48959 C 209.79105,213.48959 254.82688,267.93682 254.82688,132.52586 C 254.82688,177.69278 264.41368,216.17475 254.91488,236.11701 C 239.75863,267.93682 239.75863,267.93682 254.82688,267.93682 C 254.82688,277.12921 289.82866,277.12921 289.82866,267.93682 C 289.82866,247.43682 289.82866,258.74443 289.82866,234.7028 C 299.72815,132.52586 289.53995,132.52586 279.92917,132.52586 C 289.53995,132.52586 289.53995,132.52586 279.64046,99.11018 C 261.41822,85.57115 258.52352,83.735495 254.82688,83.735495 C 204.936,83.735499 215.936,30.249495 197.10929,30.249495 C 197.10929,23.277875 178.72451,23.277875 178.72451,30.249495 C 161.13523,30.249495 170.63523,83.735498 125.07278,83.735495 C 120.83014,83.735495 115.84836,86.821998 99.914876,99.110185 z M 187.29818,145.03716 C 164.42635,145.03717 158.22135,145.03717 139.92202,145.03716 C 134.91488,145.03716 134.91488,108.11017 139.92202,108.11017 C 139.92202,101.72687 187.29818,101.72687 187.29818,108.11017 C 187.29817,128.49284 187.29817,128.39677 187.29818,145.03716 z M 239.97763,108.11017 C 244.91488,108.11017 244.91488,145.03716 239.97763,145.03716 C 215.64538,145.03717 218.31784,145.03717 192.4247,145.03716 C 192.42469,125.93633 192.42469,125.82145 192.4247,108.11017 C 192.4247,101.72687 239.97763,101.72687 239.97763,108.11017 z M 239.75863,149.86017 C 239.75863,152.84327 254.82688,149.44651 239.75863,202.48959 C 239.75863,213.98959 139.75863,213.98959 139.75863,202.48959 C 125.07278,148.61612 139.75863,151.52351 139.75863,149.86017 C 182.00194,149.86017 196.96577,149.86017 239.75863,149.86017 z"
         id="path2498"
         sodipodi:nodetypes="ccscccsccscsscsccscccccsccscccccccccccccccc" />
      <path
         style="fill:none;fill-rule:evenodd;stroke:#000000;stroke-width:1.08521688px;stroke-linecap:butt;stroke-linejoin:miter;stroke-opacity:1"
         d="M 173.22898,78.048249 C 173.22898,74.74303 177.9084,72.761494 183.51816,72.103286 C 191.91202,71.118411 202.38882,73.096349 202.38882,78.035919 C 202.38882,86.446836 173.22898,86.576562 173.22898,78.048249 z"
         id="path2390"
         sodipodi:nodetypes="cscc" />
      <path
         style="fill:none;fill-opacity:1;fill-rule:evenodd;stroke:#000000;stroke-width:1px;stroke-linecap:butt;stroke-linejoin:miter;stroke-opacity:1"
         d="M 178.72451,58.284089 C 178.72451,56.241562 184.78525,62.497435 185.79015,62.497435 C 188.12472,62.497435 186.58977,57.547327 188.05651,56.276406 C 189.4646,57.390524 188.08705,62.497435 190.16163,62.497435 C 191.24846,62.497435 197.10929,56.228488 197.10929,58.157787 C 197.10929,52.631027 191.03991,55.956333 188.10294,55.548186 C 185.66681,55.999184 178.72451,52.434824 178.72451,58.284089 z"
         id="path2392"
         sodipodi:nodetypes="cscsccc" />
      <path
         style="fill:none;fill-rule:evenodd;stroke:#000000;stroke-width:1px;stroke-linecap:butt;stroke-linejoin:miter;stroke-opacity:1"
         d="M 173.3125,77.17297 C 173.3125,78.158442 174.80173,80.5 177.25,80.5 C 177.25,77.17297 177.78661,74.395482 177.78661,74.056216 C 177.78661,73.209233 177.04777,77.17297 178.7666,77.17297 C 180.40209,77.17297 179.00682,77.17297 181.17677,77.17297 C 183.34672,77.17297 181.40113,72.181118 182.43934,72.134833 C 183.1726,72.102143 181.14084,77.17297 183.88756,77.17297 C 186.63429,77.17297 185.87178,77.17297 186.66794,77.17297 C 189.52201,77.17297 187.88648,71.259716 188.45634,71.78128 C 189.24131,72.499727 187.72019,77.17297 189.68046,77.17297 C 191.64073,77.17297 192.60893,77.17297 193.34313,77.17297 C 194.5227,77.17297 194.35156,72.281499 194.37683,72.488387 C 194.49083,73.421686 194.11884,77.17297 195.27773,77.17297 C 196.43662,77.17297 196.74573,77.17297 197.64187,77.17297 C 198.41826,77.17297 198.4263,75.196602 198.48483,74.291051 C 199.01183,74.518437 198.75,77.172881 198.75,80.5 C 200.95511,80.5 202.3125,77.6593 202.3125,77.17297"
         id="path2420"
         transform="translate(-8.5124127e-2,0.1101747)"
         sodipodi:nodetypes="cccszszsszsszsccc" />
      <path
         style="opacity:1;fill:#000000;fill-opacity:1;fill-rule:evenodd;stroke:#000000;stroke-width:0.1;stroke-linecap:square;stroke-linejoin:round;stroke-miterlimit:4;stroke-dasharray:none;stroke-opacity:1"
         d="M 186.73558,83.692694 C 182.96683,83.584749 179.52185,82.891229 177.17308,81.767636 C 176.45769,81.425411 175.2824,80.698108 175.34447,80.63604 C 175.35691,80.623605 175.56862,80.683518 175.81494,80.769182 C 176.27615,80.929573 176.94871,81.041693 177.46996,81.045081 L 177.76683,81.047011 L 177.76723,80.500136 C 177.76774,79.817116 177.88985,77.528158 177.92781,77.490201 C 177.94326,77.474748 178.05494,77.509336 178.17599,77.56706 C 178.36434,77.656879 178.62719,77.672011 179.99922,77.672011 C 181.50352,77.672011 181.6192,77.663863 181.87534,77.539867 C 182.02547,77.467189 182.19227,77.340625 182.24601,77.258617 C 182.29974,77.17661 182.36398,77.109511 182.38876,77.109511 C 182.41354,77.109511 182.55796,77.204179 182.7097,77.319885 C 182.86143,77.435591 183.08118,77.562153 183.19803,77.601135 C 183.33732,77.647605 184.04912,77.672011 185.26502,77.672011 C 187.43865,77.672011 187.53156,77.654426 188.05949,77.143087 C 188.24227,76.966041 188.39183,76.846856 188.39183,76.87823 C 188.39183,77.013549 188.79182,77.42296 189.04267,77.544393 C 189.30737,77.672528 189.38413,77.676059 191.52827,77.658687 L 193.74075,77.640761 L 193.93574,77.484511 C 194.04298,77.398573 194.16624,77.264719 194.20965,77.187057 L 194.28857,77.045855 L 194.38844,77.198096 C 194.44337,77.281829 194.57132,77.415683 194.67277,77.49555 C 194.85285,77.637314 194.89391,77.641204 196.40334,77.659426 C 197.79248,77.676196 197.96647,77.666941 198.11707,77.56826 L 198.28469,77.45843 L 198.23838,79.262515 L 198.19206,81.0666 L 198.7638,81.026015 C 199.26544,80.990409 199.57677,80.913337 200.29808,80.646198 C 200.53721,80.557634 200.03398,80.950465 199.50473,81.265501 C 197.67025,82.357473 194.78026,83.175287 191.56143,83.513313 C 190.64564,83.609485 188.09015,83.742655 187.57933,83.720825 C 187.42464,83.714217 187.04496,83.701557 186.73558,83.692695 L 186.73558,83.692694 z"
         id="path3202"
         transform="translate(-8.5124127e-2,0.1101747)" />
      <path
         sodipodi:type="arc"
         style="opacity:1;fill:#ffffff;fill-opacity:1;fill-rule:evenodd;stroke:none;stroke-width:0.1;stroke-linecap:square;stroke-linejoin:round;stroke-miterlimit:4;stroke-dasharray:none;stroke-opacity:1"
         id="path3210"
         sodipodi:cx="177.5625"
         sodipodi:cy="38.062496"
         sodipodi:rx="3.8125"
         sodipodi:ry="3.5625"
         d="m 181.375,38.062496 c 0,1.967515 -1.70691,3.5625 -3.8125,3.5625 -2.10559,0 -3.8125,-1.594985 -3.8125,-3.5625 0,-1.967514 1.70691,-3.5625 3.8125,-3.5625 2.10559,0 3.8125,1.594986 3.8125,3.5625 z"
         transform="matrix(1.7675624,0,0,1.280702,-135.12829,-1.9238512)" />
      <path
         sodipodi:type="arc"
         style="opacity:1;fill:#ffffff;fill-opacity:1;fill-rule:evenodd;stroke:none;stroke-width:0.1;stroke-linecap:square;stroke-linejoin:round;stroke-miterlimit:4;stroke-dasharray:none;stroke-opacity:1"
         id="path3212"
         sodipodi:cx="177.5625"
         sodipodi:cy="38.062496"
         sodipodi:rx="3.8125"
         sodipodi:ry="3.5625"
         d="m 181.375,38.062496 c 0,1.967515 -1.70691,3.5625 -3.8125,3.5625 -2.10559,0 -3.8125,-1.594985 -3.8125,-3.5625 0,-1.967514 1.70691,-3.5625 3.8125,-3.5625 2.10559,0 3.8125,1.594986 3.8125,3.5625 z"
         transform="matrix(1.8052921,0,0,1.2807016,-122.98707,-1.9575251)" />
      <path
         sodipodi:type="arc"
         style="opacity:1;fill:#ff0000;fill-opacity:1;fill-rule:evenodd;stroke:none;stroke-width:0.1;stroke-linecap:square;stroke-linejoin:round;stroke-miterlimit:4;stroke-dasharray:none;stroke-opacity:1"
         id="path3230"
         sodipodi:cx="177.5625"
         sodipodi:cy="38.062496"
         sodipodi:rx="3.8125"
         sodipodi:ry="3.5625"
         d="m 181.375,38.062496 c 0,1.967515 -1.70691,3.5625 -3.8125,3.5625 -2.10559,0 -3.8125,-1.594985 -3.8125,-3.5625 0,-1.967514 1.70691,-3.5625 3.8125,-3.5625 2.10559,0 3.8125,1.594986 3.8125,3.5625 z"
         transform="matrix(0.7938416,0,0,0.7938416,37.856397,16.661052)" />
      <path
         sodipodi:type="arc"
         style="opacity:1;fill:#ff0000;fill-opacity:1;fill-rule:evenodd;stroke:none;stroke-width:0.1;stroke-linecap:square;stroke-linejoin:round;stroke-miterlimit:4;stroke-dasharray:none;stroke-opacity:1"
         id="path3232"
         sodipodi:cx="177.5625"
         sodipodi:cy="38.062496"
         sodipodi:rx="3.8125"
         sodipodi:ry="3.5625"
         d="m 181.375,38.062496 c 0,1.967515 -1.70691,3.5625 -3.8125,3.5625 -2.10559,0 -3.8125,-1.594985 -3.8125,-3.5625 0,-1.967514 1.70691,-3.5625 3.8125,-3.5625 2.10559,0 3.8125,1.594986 3.8125,3.5625 z"
         transform="matrix(0.7938416,0,0,0.7938416,56.358593,16.627361)" />
      <path
         sodipodi:type="arc"
         style="opacity:1;fill:#000000;fill-opacity:1;fill-rule:evenodd;stroke:none;stroke-width:0.1;stroke-linecap:square;stroke-linejoin:round;stroke-miterlimit:4;stroke-dasharray:none;stroke-opacity:1"
         id="path3234"
         sodipodi:cx="177.5625"
         sodipodi:cy="38.062496"
         sodipodi:rx="3.8125"
         sodipodi:ry="3.5625"
         d="m 181.375,38.062496 c 0,1.967515 -1.70691,3.5625 -3.8125,3.5625 -2.10559,0 -3.8125,-1.594985 -3.8125,-3.5625 0,-1.967514 1.70691,-3.5625 3.8125,-3.5625 2.10559,0 3.8125,1.594986 3.8125,3.5625 z"
         transform="matrix(0.4460842,0,0,0.4460842,99.672141,29.897567)" />
      <path
         sodipodi:type="arc"
         style="opacity:1;fill:#000000;fill-opacity:1;fill-rule:evenodd;stroke:none;stroke-width:0.1;stroke-linecap:square;stroke-linejoin:round;stroke-miterlimit:4;stroke-dasharray:none;stroke-opacity:1"
         id="path3236"
         sodipodi:cx="177.5625"
         sodipodi:cy="38.062496"
         sodipodi:rx="3.8125"
         sodipodi:ry="3.5625"
         d="m 181.375,38.062496 c 0,1.967515 -1.70691,3.5625 -3.8125,3.5625 -2.10559,0 -3.8125,-1.594985 -3.8125,-3.5625 0,-1.967514 1.70691,-3.5625 3.8125,-3.5625 2.10559,0 3.8125,1.594986 3.8125,3.5625 z"
         transform="matrix(0.4460842,0,0,0.4460842,118.05797,29.863876)" />
      <path
         style="fill:none;fill-rule:evenodd;stroke:#000000;stroke-width:1px;stroke-linecap:butt;stroke-linejoin:miter;stroke-opacity:1"
         d="M 176.68831,52.247459 C 184.56844,49.6842 184.66074,49.6842 188.62074,49.6842 C 192.79603,49.6842 192.65185,49.6842 200.11122,52.866178"
         id="path3216"
         transform="translate(-8.5124127e-2,0.1101747)"
         sodipodi:nodetypes="ccc" />
      <path
         style="opacity:1;fill:none;fill-opacity:1;fill-rule:evenodd;stroke:none;stroke-width:0.1;stroke-linecap:square;stroke-linejoin:round;stroke-miterlimit:4;stroke-dasharray:none;stroke-opacity:1"
         d="M 200.29617,65.009728 C 199.58516,64.941559 198.93094,64.822705 196.98161,64.407569 C 193.46669,63.659019 191.31079,63.398045 188.58471,63.391113 C 185.90804,63.384308 183.84577,63.627548 181.1159,64.272055 C 179.53098,64.646246 177.84139,64.930192 176.86694,64.98612 C 175.26899,65.077833 174.57516,64.775993 174.57516,63.989115 C 174.57516,63.456197 174.74567,62.991776 175.59816,61.202671 C 176.00646,60.345788 176.49022,59.212206 176.67318,58.683603 L 177.00584,57.722507 L 177.00584,55.512798 C 177.00584,54.297458 176.97821,53.179866 176.94445,53.02926 L 176.88305,52.755431 L 179.5519,51.900987 C 182.67097,50.902401 184.26084,50.485941 185.50697,50.341079 C 186.09445,50.272786 187.35217,50.249846 189.1309,50.274985 C 191.70518,50.311366 191.90129,50.325868 192.69477,50.538527 C 193.79051,50.832189 194.8142,51.219892 197.55613,52.379666 C 199.76042,53.312027 199.80985,53.338521 199.80163,53.583217 C 199.79701,53.720828 199.74368,54.369975 199.68312,55.025765 C 199.4734,57.296783 199.64756,57.893379 201.54116,61.390623 C 202.55018,63.254137 202.80331,64.146439 202.46141,64.634561 C 202.22197,64.976403 201.41213,65.116725 200.29617,65.009728 z M 189.11742,60.904487 C 189.51401,60.564192 190.46107,59.73667 191.222,59.065549 C 192.88473,57.599063 194.8281,56.033421 195.34379,55.744908 L 195.71884,55.535075 L 195.65642,55.744909 C 195.59356,55.956196 194.91395,57.27138 194.5605,57.865729 L 194.37021,58.185728 L 194.57106,58.316663 C 194.68152,58.388675 194.89811,58.512596 195.05237,58.592042 L 195.33284,58.736488 L 195.76033,57.964334 C 196.62607,56.400609 197.01756,55.358025 196.90597,54.913404 C 196.8123,54.540215 196.51265,54.319282 196.10315,54.321496 C 195.22092,54.326267 193.94226,55.237855 190.07206,58.621216 C 189.04278,59.521015 188.18352,60.263642 188.1626,60.271493 C 188.14167,60.279344 187.36149,59.649373 186.42887,58.871555 C 183.39029,56.337349 181.12414,54.73865 180.08418,54.395564 C 179.13097,54.081098 178.54297,54.506609 178.67882,55.412548 C 178.77029,56.022503 180.26372,58.738973 180.50759,58.738973 C 180.55256,58.738973 180.75755,58.631247 180.96311,58.499581 C 181.16868,58.367915 181.34956,58.252479 181.36506,58.243054 C 181.38057,58.233631 181.17085,57.881164 180.89902,57.459797 C 180.36447,56.631177 179.75077,55.468604 179.84791,55.468604 C 180.01569,55.468604 181.18836,56.194208 182.17241,56.906916 C 183.42841,57.816589 184.7805,58.895766 186.77066,60.577024 C 187.89169,61.524057 188.16184,61.713728 188.26746,61.627916 C 188.33834,61.570328 188.72083,61.244782 189.11742,60.904487 L 189.11742,60.904487 z"
         id="path3226"
         transform="translate(-8.5124127e-2,0.1101747)" />
      <path
         style="opacity:1;fill:#000000;fill-opacity:1;fill-rule:evenodd;stroke:#000000;stroke-width:0.00976562;stroke-linecap:square;stroke-linejoin:round;stroke-miterlimit:4;stroke-dasharray:none;stroke-opacity:1"
         d="M 185.40909,61.532893 C 185.17276,61.363797 184.16641,60.579791 183.17276,59.790657 C 181.24267,58.257831 180.33855,57.614195 179.79847,57.388536 C 179.61331,57.311172 179.46278,57.193532 179.46396,57.127114 C 179.46831,56.882161 179.83612,56.217313 180.10868,55.961731 C 180.92974,55.191817 181.96927,55.150048 185.49985,55.745109 C 186.2695,55.874829 187.04355,55.980964 187.21997,55.980964 L 187.54072,55.980964 L 187.31891,56.4191 C 187.05433,56.941718 186.92163,57.71382 186.78514,59.524936 C 186.67982,60.922545 186.50518,61.579407 186.19478,61.745531 C 185.93463,61.884756 185.88031,61.870053 185.40909,61.532893 L 185.40909,61.532893 z"
         id="path3243"
         transform="translate(-8.5124127e-2,0.1101747)" />
      <path
         style="opacity:1;fill:#000000;fill-opacity:1;fill-rule:evenodd;stroke:#000000;stroke-width:0.00976562;stroke-linecap:square;stroke-linejoin:round;stroke-miterlimit:4;stroke-dasharray:none;stroke-opacity:1"
         d="M 189.99101,61.718269 C 189.72482,61.505419 189.60997,60.958703 189.46276,59.20362 C 189.32063,57.509167 189.14761,56.624062 188.87575,56.200691 C 188.73732,55.985104 188.74252,55.980959 189.15195,55.980711 C 189.38146,55.980572 190.27236,55.867549 191.13174,55.729549 C 193.03223,55.424362 194.58835,55.32929 195.15562,55.483706 C 195.68457,55.627692 196.1421,56.016485 196.3681,56.514033 C 196.62609,57.081991 196.59638,57.176644 196.08379,57.41992 C 195.52435,57.685431 194.84312,58.198148 192.74307,59.934253 C 191.24692,61.171112 190.35613,61.840339 190.20593,61.840339 C 190.17169,61.840339 190.07498,61.785407 189.99102,61.718269 L 189.99101,61.718269 z"
         id="path3245"
         transform="translate(-8.5124127e-2,0.1101747)" />
      <path
         style="fill:none;fill-rule:evenodd;stroke:#000000;stroke-width:1px;stroke-linecap:butt;stroke-linejoin:miter;stroke-opacity:1"
         d="M 207.37026,41.418274 C 214.0025,35.335128 212.05776,54.894836 212.05776,54.894836"
         id="path3291"
         sodipodi:nodetypes="cc" />
      <path
         style="fill:none;fill-rule:evenodd;stroke:#000000;stroke-width:0.80315369px;stroke-linecap:butt;stroke-linejoin:miter;stroke-opacity:1"
         d="M 207.10545,42.917234 C 212.43215,38.031532 210.87023,53.740984 210.87023,53.740984"
         id="path3295"
         sodipodi:nodetypes="cc" />
      <path
         style="fill:none;fill-rule:evenodd;stroke:#000000;stroke-width:1px;stroke-linecap:butt;stroke-linejoin:miter;stroke-opacity:1"
         d="M 168.8651,41.361006 C 162.23286,35.27786 164.1776,54.837568 164.1776,54.837568"
         id="path3297"
         sodipodi:nodetypes="cc" />
      <path
         style="fill:none;fill-rule:evenodd;stroke:#000000;stroke-width:0.80315369px;stroke-linecap:butt;stroke-linejoin:miter;stroke-opacity:1"
         d="M 169.12991,42.859966 C 163.80321,37.974264 165.36513,53.683716 165.36513,53.683716"
         id="path3299"
         sodipodi:nodetypes="cc" />
      <path
         style="opacity:1;fill:#ffffff;fill-opacity:1;fill-rule:evenodd;stroke:#000000;stroke-width:0.01953125;stroke-linecap:square;stroke-linejoin:round;stroke-miterlimit:4;stroke-dasharray:none;stroke-opacity:1"
         d="M 174.82923,65.763591 C 174.35202,65.286371 174.42358,64.89931 175.37036,62.836878 C 176.90217,59.500019 177.00246,59.096591 176.96785,56.411042 L 176.93613,53.950624 L 178.37441,53.502773 C 184.30516,51.656044 184.28171,51.66087 187.82195,51.558216 C 192.03545,51.436044 192.70699,51.600538 199.06455,54.312183 L 199.76173,54.609548 L 199.58182,56.135326 C 199.34345,58.156935 199.5573,59.011128 201.03309,61.932255 C 202.49793,64.831718 202.61918,65.213937 202.24403,65.749542 C 201.83467,66.33397 200.33155,66.287751 196.944,65.586574 C 192.7078,64.709738 190.80853,64.527031 187.26263,64.655242 C 184.71815,64.747242 183.46868,64.902642 180.78924,65.460349 C 176.89621,66.27066 175.41183,66.346183 174.82924,65.763591 L 174.82923,65.763591 z M 186.80344,63.81039 C 187.44153,63.308478 187.71071,62.479072 187.89299,60.4533 L 188.03879,58.832972 L 188.19069,60.395472 C 188.27423,61.254847 188.42499,62.282849 188.5257,62.679921 C 188.70915,63.403189 189.48645,64.204066 190.00497,64.204066 C 190.52723,64.204066 191.5351,63.555554 193.48455,61.96514 C 195.93507,59.965939 196.49707,59.576751 197.18144,59.404986 C 197.70265,59.274167 197.72375,59.225548 197.61225,58.41207 C 197.25612,55.813808 195.75993,55.128665 191.71871,55.713275 C 189.27226,56.067179 186.8787,56.035945 183.81659,55.61015 C 181.54852,55.294769 180.32932,55.447328 179.49285,56.151173 C 178.7652,56.763443 178.16281,57.994638 178.15681,58.8818 C 178.1532,59.415535 178.22415,59.516566 178.60257,59.516566 C 179.16967,59.516566 180.35466,60.265513 182.35174,61.886134 C 185.35801,64.325708 185.86805,64.546175 186.80345,63.810386 L 186.80344,63.81039 z"
         id="path3313" />
      <path
         style="opacity:1;fill:#ffffff;fill-opacity:1;fill-rule:evenodd;stroke:#000000;stroke-width:0.01953125;stroke-linecap:square;stroke-linejoin:round;stroke-miterlimit:4;stroke-dasharray:none;stroke-opacity:1"
         d="M 187.61264,92.349164 C 182.92192,92.008584 177.54969,90.205619 172.72006,87.351094 L 171.01108,86.341004 L 171.01678,83.698224 C 171.02914,77.964178 171.55657,74.217982 172.74078,71.45314 C 173.35052,70.029527 174.27978,69.293939 176.39814,68.558021 C 179.04989,67.636801 181.85147,67.26533 187.04806,67.145908 C 193.17087,67.005203 196.09457,67.330877 199.96407,68.584642 C 201.19884,68.984719 201.60441,69.223623 202.17869,69.889148 C 203.11454,70.973685 203.71092,72.179822 204.33844,74.257109 C 204.79575,75.770949 204.86847,76.399076 204.9446,79.492943 C 204.99219,81.426537 204.9467,83.765885 204.84354,84.691494 C 204.66495,86.293771 204.61964,86.408654 203.89798,87.088736 C 202.59183,88.319619 200.00088,89.941385 198.11615,90.707775 C 195.91114,91.604394 194.16119,92.035578 191.71421,92.285185 C 189.8971,92.470543 189.3927,92.47841 187.61264,92.349164 z M 192.59311,84.57564 C 197.97689,83.800412 201.60089,82.043943 202.6769,79.688256 C 203.15655,78.638185 203.1415,77.184422 202.64029,76.149056 C 201.18235,73.137351 195.35602,71.17323 187.89814,71.179306 C 180.38843,71.185428 174.68252,73.08964 173.14537,76.102699 C 172.66527,77.043801 172.64664,78.784879 173.10629,79.756394 C 174.26561,82.20675 178.51923,84.130976 184.09702,84.728314 C 185.88053,84.919314 190.82321,84.830498 192.59311,84.575642 L 192.59311,84.57564 z"
         id="path3315"
         transform="translate(-8.5124127e-2,0.1101747)" />
      <path
         style="opacity:1;fill:#ffffff;fill-opacity:1;fill-rule:evenodd;stroke:#000000;stroke-width:0.01953125;stroke-linecap:square;stroke-linejoin:round;stroke-miterlimit:4;stroke-dasharray:none;stroke-opacity:1"
         d="M 195.2367,76.283125 C 195.1255,76.075346 195.03452,75.282656 195.03452,74.521594 L 195.03452,73.137847 L 195.57163,73.256556 C 195.86704,73.321845 196.53034,73.507734 197.04563,73.66964 L 197.98252,73.964015 L 197.86505,74.873012 C 197.62428,76.735988 197.68149,76.660912 196.50251,76.660912 C 195.65083,76.660912 195.3986,76.585633 195.2367,76.283127 L 195.2367,76.283125 z"
         id="path3317"
         transform="translate(-8.5124127e-2,0.1101747)" />
      <path
         style="opacity:1;fill:#ffffff;fill-opacity:1;fill-rule:evenodd;stroke:#000000;stroke-width:0.01953125;stroke-linecap:square;stroke-linejoin:round;stroke-miterlimit:4;stroke-dasharray:none;stroke-opacity:1"
         d="M 199.33139,77.240824 L 199.33139,74.685703 L 199.94504,75.038539 C 200.57464,75.400562 201.67514,76.737437 201.67514,77.14026 C 201.67514,77.612377 200.49966,79.191806 199.92846,79.487185 L 199.33139,79.795943 L 199.33139,77.240824 z"
         id="path3319"
         transform="translate(-8.5124127e-2,0.1101747)" />
      <path
         style="opacity:1;fill:#ffffff;fill-opacity:1;fill-rule:evenodd;stroke:#000000;stroke-width:0.01953125;stroke-linecap:square;stroke-linejoin:round;stroke-miterlimit:4;stroke-dasharray:none;stroke-opacity:1"
         d="M 189.35318,76.127193 C 189.24157,75.833644 189.17783,74.860629 189.21153,73.964935 L 189.2728,72.336398 L 190.05405,72.441814 C 190.48374,72.499787 191.47251,72.605254 192.25132,72.676179 L 193.66733,72.805135 L 193.66733,74.117939 C 193.66733,74.839984 193.57084,75.707533 193.45291,76.04583 L 193.23849,76.660912 L 191.3973,76.660912 C 189.57127,76.660912 189.55443,76.656515 189.35318,76.127191 L 189.35318,76.127193 z"
         id="path3321"
         transform="translate(-8.5124127e-2,0.1101747)" />
      <path
         style="opacity:1;fill:#ffffff;fill-opacity:1;fill-rule:evenodd;stroke:#000000;stroke-width:0.01953125;stroke-linecap:square;stroke-linejoin:round;stroke-miterlimit:4;stroke-dasharray:none;stroke-opacity:1"
         d="M 183.44348,76.414072 C 183.09654,76.160385 182.99857,75.430879 183.07839,73.695558 C 183.12837,72.608871 183.0681,72.63608 185.83098,72.452791 L 187.85793,72.318326 L 187.77148,74.12648 C 187.65994,76.459347 187.46215,76.660912 185.28459,76.660912 C 184.38128,76.660912 183.64629,76.562373 183.44348,76.414074 L 183.44348,76.414072 z"
         id="path3323"
         transform="translate(-8.5124127e-2,0.1101747)" />
      <path
         style="opacity:1;fill:#ffffff;fill-opacity:1;fill-rule:evenodd;stroke:#000000;stroke-width:0.01953125;stroke-linecap:square;stroke-linejoin:round;stroke-miterlimit:4;stroke-dasharray:none;stroke-opacity:1"
         d="M 178.52329,76.332728 C 178.11835,75.927777 178.20914,73.991029 178.64583,73.719056 C 178.93271,73.540383 181.4099,72.932123 181.49679,73.019015 C 181.52409,73.046324 181.56434,73.796353 181.58623,74.685746 C 181.63287,76.581346 181.57333,76.653572 179.96058,76.657922 C 179.17917,76.660031 178.75452,76.563947 178.5233,76.332726 L 178.52329,76.332728 z"
         id="path3325"
         transform="translate(-8.5124127e-2,0.1101747)" />
      <path
         style="opacity:1;fill:#ffffff;fill-opacity:1;fill-rule:evenodd;stroke:#000000;stroke-width:0.01953125;stroke-linecap:square;stroke-linejoin:round;stroke-miterlimit:4;stroke-dasharray:none;stroke-opacity:1"
         d="M 175.48797,79.34181 C 174.59344,78.738986 173.90099,77.682476 174.06133,77.165109 C 174.29081,76.42466 174.94172,75.678304 175.9504,74.999017 C 176.49829,74.630051 176.98024,74.361845 177.02141,74.403013 C 177.06258,74.444176 176.98577,75.672174 176.85072,77.131887 C 176.68784,78.892435 176.52805,79.785912 176.37607,79.785912 C 176.25007,79.785912 175.85042,79.586066 175.48797,79.34181 L 175.48797,79.34181 z"
         id="path3327"
         transform="translate(-8.5124127e-2,0.1101747)" />
      <path
         style="opacity:1;fill:#ffffff;fill-opacity:1;fill-rule:evenodd;stroke:#000000;stroke-width:0.01953125;stroke-linecap:square;stroke-linejoin:round;stroke-miterlimit:4;stroke-dasharray:none;stroke-opacity:1"
         d="M 187.34892,44.332536 C 186.36024,44.157124 185.57018,43.667987 183.91424,42.206095 C 181.39262,39.97996 179.30428,39.006042 176.43147,38.716433 C 174.75465,38.547394 174.44159,38.43629 174.44159,38.010261 C 174.44159,37.06181 178.77852,36.195839 184.50018,36.001831 C 193.57687,35.694062 201.23201,36.467356 202.05708,37.775364 C 202.40589,38.328337 201.93536,38.545685 200.00352,38.723944 C 198.02762,38.906271 196.46919,39.29789 195.24825,39.918905 C 194.35911,40.371149 192.50897,41.75556 191.92555,42.405194 C 191.20669,43.205646 189.74986,44.151626 188.97813,44.319081 C 188.55628,44.410616 187.82313,44.416673 187.34893,44.332538 L 187.34892,44.332536 z"
         id="path3329" />
    </g>
    <path
       style="opacity:1;fill:#000000;fill-opacity:1;fill-rule:evenodd;stroke:#000000;stroke-width:0.07136451;stroke-linecap:square;stroke-linejoin:round;stroke-miterlimit:4;stroke-dasharray:none;stroke-opacity:1"
       d="M 358.61359,112.37236 C 359.50892,96.945577 361.46362,90.302077 364.96095,90.799457 C 366.34176,90.995867 366.52039,91.395737 366.33739,93.880467 C 365.97975,98.739997 364.72205,104.27621 362.16827,112.23633 C 358.7608,122.85824 358.00317,122.88721 358.61359,112.37236 L 358.61359,112.37236 z"
       id="path3301" />
    <path
       style="opacity:1;fill:#000000;fill-opacity:1;fill-rule:evenodd;stroke:#000000;stroke-width:0.07136451;stroke-linecap:square;stroke-linejoin:round;stroke-miterlimit:4;stroke-dasharray:none;stroke-opacity:1"
       d="M 355.1579,103.87397 C 355.65616,92.254017 358.14527,85.568267 362.15074,85.089537 C 363.18598,84.965787 364.75091,85.367297 365.62761,85.981807 C 367.21007,87.090667 367.20386,87.099147 364.82871,87.099147 C 363.02415,87.099147 361.86398,87.705287 360.11165,89.564437 C 357.5009,92.334127 356.46639,95.784417 355.49215,104.97263 L 354.85142,111.0122 L 355.1579,103.87397 z"
       id="path3305" />
    <path
       style="opacity:1;fill:#000000;fill-opacity:1;fill-rule:evenodd;stroke:#000000;stroke-width:0.07136451;stroke-linecap:square;stroke-linejoin:round;stroke-miterlimit:4;stroke-dasharray:none;stroke-opacity:1"
       d="M 526.16784,116.25022 C 525.99213,103.18197 524.74574,94.756547 522.43416,91.014727 C 520.87618,88.492527 517.13409,86.716017 515.05812,87.513017 C 513.0227,88.294407 513.77557,87.189417 516.09629,85.988647 C 519.22761,84.368447 521.43436,85.153897 523.13809,88.495377 C 525.62136,93.365547 526.77935,102.74413 526.54227,116.07034 L 526.32784,128.14394 L 526.16784,116.25022 z"
       id="path3307" />
    <path
       style="opacity:1;fill:#000000;fill-opacity:1;fill-rule:evenodd;stroke:#000000;stroke-width:0.07136451;stroke-linecap:square;stroke-linejoin:round;stroke-miterlimit:4;stroke-dasharray:none;stroke-opacity:1"
       d="M 519.68678,113.9976 C 517.29775,108.25589 514.95439,99.988622 514.26361,94.863857 C 513.8574,91.849657 513.96041,91.525627 515.4541,91.116767 C 517.49027,90.559517 519.8771,93.041737 521.03033,96.915387 C 521.86211,99.710522 522.92951,119.22115 522.25042,119.22115 C 522.03599,119.22115 520.88239,116.87055 519.68678,113.9976 L 519.68678,113.9976 z"
       id="path3309" />
    <path
       style="fill:none;fill-rule:evenodd;stroke:#000000;stroke-width:3.65386105px;stroke-linecap:butt;stroke-linejoin:miter;stroke-opacity:1"
       d="M 382.16342,102.02125 C 405.91819,78.254817 426.87481,97.242527 428.72248,99.090932"
       id="path4062"
       sodipodi:nodetypes="cc" />
    <path
       style="fill:none;fill-rule:evenodd;stroke:#000000;stroke-width:3.65386105px;stroke-linecap:butt;stroke-linejoin:miter;stroke-opacity:1"
       d="M 450.65624,101.33598 C 452.68217,99.309082 473.51275,78.115937 499.28651,100.42229"
       id="path4064"
       sodipodi:nodetypes="cc" />
    <path
       style="opacity:1;fill:#ffffff;fill-opacity:1;fill-rule:evenodd;stroke:none;stroke-width:0.1;stroke-linecap:square;stroke-linejoin:round;stroke-miterlimit:4;stroke-dasharray:none;stroke-opacity:1"
       d="M 257.87983,453.91216 C 256.255,448.58203 254.33135,427.93951 253.60514,408.04038 C 251.65446,354.5897 256.96002,333.10806 274.20304,324.64215 C 299.66884,312.13917 402.58304,312.12309 429.99187,324.61729 L 436.23696,327.46437 L 436.23696,395.53375 L 436.23696,463.60315 L 348.53509,463.60315 L 260.8336,463.60315 L 257.87983,453.91216 z"
       id="path2442" />
    <path
       style="opacity:1;fill:#ffffff;fill-opacity:1;fill-rule:evenodd;stroke:none;stroke-width:0.1;stroke-linecap:square;stroke-linejoin:round;stroke-miterlimit:4;stroke-dasharray:none;stroke-opacity:1"
       d="M 457.50406,395.83235 L 458.19265,327.99357 L 465.11498,324.67541 C 478.60971,318.20718 502.63335,315.43906 544.7241,315.50339 C 592.7341,315.57648 618.95169,320.08062 628.81648,329.95033 C 638.68453,339.82333 641.43633,355.42994 641.21813,400.28751 C 641.07313,430.15029 639.94843,444.50805 637.16899,451.97366 L 633.3202,462.31119 L 545.06784,462.99097 L 456.81511,463.67113 L 457.50406,395.83235 z"
       id="path2444" />
    <path
       style="opacity:1;fill:#ffffff;fill-opacity:1;fill-rule:evenodd;stroke:none;stroke-width:0.1;stroke-linecap:square;stroke-linejoin:round;stroke-miterlimit:4;stroke-dasharray:none;stroke-opacity:1"
       d="M 402.65758,704.90143 C 344.87484,702.67604 294.23399,694.99115 275.75847,685.64334 C 266.48289,680.95061 266.30426,680.55078 258.29152,646.5519 C 241.57049,575.60108 237.72429,524.78988 247.45284,503.35647 C 256.73463,482.90693 242.42235,484.27783 446.66028,484.27783 L 628.9973,484.27783 L 635.64352,491.38453 C 649.14063,505.81796 651.76573,514.43664 651.58303,543.71685 C 651.39023,574.63037 649.12763,589.03858 636.04242,642.68405 C 626.76827,680.70538 626.66343,680.94659 617.36193,685.67112 C 605.13733,691.88021 575.63867,698.06884 543.43278,701.18125 C 513.6711,704.05718 434.83751,706.14076 402.65758,704.90143 z"
       id="path2446" />
  </g>
</svg>
